<svg width="162" height="28" viewBox="0 0 162 28" fill="none" xmlns="http://www.w3.org/2000/svg">
<g clip-path="url(#clip0_10_683)">
<path d="M24.3554 21.461H32.7659L11.9315 0.921875H3.521L24.3554 21.461Z" fill="#374836"/>
<path d="M16.2524 0.921876L36.3364 20.7212V0.921875H30.9013V7.17289L24.5604 0.921875L16.2524 0.921876Z" fill="#374836"/>
<path d="M0 1.60938V21.4608H5.43507V15.2098L11.7759 21.4608H20.1369L0 1.60938Z" fill="#374836"/>
<path d="M49.452 18.3725H54.3217V21.2015H45.7344V6.15625H49.452V18.3725Z" fill="#374836"/>
<path d="M60.9648 21.3731C59.7763 21.3731 58.7038 21.1231 57.7472 20.6229C56.8051 20.1228 56.0587 19.4084 55.5079 18.4798C54.9718 17.551 54.7036 16.4651 54.7036 15.222C54.7036 13.9933 54.9789 12.9145 55.5297 11.9858C56.0805 11.0428 56.8341 10.3212 57.7907 9.82116C58.7473 9.32108 59.8198 9.07104 61.0083 9.07104C62.1967 9.07104 63.2692 9.32108 64.2258 9.82116C65.1824 10.3212 65.936 11.0428 66.4868 11.9858C67.0376 12.9145 67.3129 13.9933 67.3129 15.222C67.3129 16.4508 67.0303 17.5367 66.465 18.4798C65.9143 19.4084 65.1533 20.1228 64.1823 20.6229C63.2258 21.1231 62.1532 21.3731 60.9648 21.3731ZM60.9648 18.2011C61.675 18.2011 62.2765 17.9439 62.7692 17.4296C63.2765 16.9152 63.5301 16.1794 63.5301 15.222C63.5301 14.2647 63.2837 13.5289 62.791 13.0146C62.3127 12.5002 61.7184 12.243 61.0083 12.243C60.2836 12.243 59.6821 12.5002 59.2038 13.0146C58.7255 13.5146 58.4864 14.2505 58.4864 15.222C58.4864 16.1794 58.7183 16.9152 59.1821 17.4296C59.6604 17.9439 60.2546 18.2011 60.9648 18.2011Z" fill="#374836"/>
<path d="M73.2417 9.07104C74.0968 9.07104 74.8432 9.2425 75.4809 9.58541C76.1331 9.92833 76.6331 10.3784 76.981 10.9356V9.2425H80.6986V21.1802C80.6986 22.2804 80.4739 23.2734 80.0246 24.1592C79.5898 25.0593 78.9159 25.7738 78.0028 26.3024C77.1042 26.8311 75.9809 27.0955 74.6331 27.0955C72.8358 27.0955 71.3793 26.6739 70.2633 25.8309C69.1473 25.0022 68.5096 23.8735 68.3501 22.4447H72.0242C72.1402 22.9019 72.4156 23.259 72.8503 23.5162C73.2852 23.7877 73.8214 23.9235 74.4592 23.9235C75.2273 23.9235 75.836 23.7021 76.2854 23.2591C76.7491 22.8304 76.981 22.1375 76.981 21.1802V19.487C76.6186 20.0442 76.1186 20.5015 75.4809 20.8587C74.8432 21.2016 74.0968 21.3731 73.2417 21.3731C72.2417 21.3731 71.3357 21.1231 70.5242 20.6229C69.7125 20.1085 69.0675 19.3871 68.5893 18.4583C68.1255 17.5153 67.8936 16.4294 67.8936 15.2006C67.8936 13.9719 68.1255 12.8931 68.5893 11.9644C69.0675 11.0357 69.7125 10.3212 70.5242 9.82116C71.3357 9.32108 72.2417 9.07104 73.2417 9.07104ZM76.981 15.222C76.981 14.3077 76.7201 13.5861 76.1984 13.0574C75.6911 12.5287 75.0678 12.2644 74.3287 12.2644C73.5895 12.2644 72.9591 12.5287 72.4373 13.0574C71.93 13.5718 71.6764 14.2862 71.6764 15.2006C71.6764 16.1151 71.93 16.8437 72.4373 17.3867C72.9591 17.9154 73.5895 18.1796 74.3287 18.1796C75.0678 18.1796 75.6911 17.9154 76.1984 17.3867C76.7201 16.858 76.981 16.1365 76.981 15.222Z" fill="#374836"/>
<path d="M88.2583 21.3731C87.0698 21.3731 85.9973 21.1231 85.0407 20.6229C84.0986 20.1228 83.3522 19.4084 82.8015 18.4798C82.2652 17.551 81.9971 16.4651 81.9971 15.222C81.9971 13.9933 82.2725 12.9145 82.8232 11.9858C83.374 11.0428 84.1276 10.3212 85.0842 9.82116C86.0408 9.32108 87.1133 9.07104 88.3017 9.07104C89.4902 9.07104 90.5628 9.32108 91.5193 9.82116C92.4758 10.3212 93.2296 11.0428 93.7803 11.9858C94.3311 12.9145 94.6065 13.9933 94.6065 15.222C94.6065 16.4508 94.3238 17.5367 93.7586 18.4798C93.2078 19.4084 92.4469 20.1228 91.4759 20.6229C90.5192 21.1231 89.4468 21.3731 88.2583 21.3731ZM88.2583 18.2011C88.9684 18.2011 89.5699 17.9439 90.0627 17.4296C90.57 16.9152 90.8237 16.1794 90.8237 15.222C90.8237 14.2647 90.5773 13.5289 90.0844 13.0146C89.6061 12.5002 89.012 12.243 88.3017 12.243C87.5771 12.243 86.9756 12.5002 86.4973 13.0146C86.019 13.5146 85.7799 14.2505 85.7799 15.222C85.7799 16.1794 86.0118 16.9152 86.4755 17.4296C86.9539 17.9439 87.5481 18.2011 88.2583 18.2011Z" fill="#374836"/>
<path d="M97.7961 7.99937C97.1439 7.99937 96.6076 7.81361 96.1873 7.44213C95.7815 7.05635 95.5786 6.58485 95.5786 6.02761C95.5786 5.45609 95.7815 4.98458 96.1873 4.61309C96.6076 4.22731 97.1439 4.03442 97.7961 4.03442C98.4338 4.03442 98.9556 4.22731 99.3614 4.61309C99.7817 4.98458 99.9919 5.45609 99.9919 6.02761C99.9919 6.58485 99.7817 7.05635 99.3614 7.44213C98.9556 7.81361 98.4338 7.99937 97.7961 7.99937ZM99.644 9.24242V21.2015H95.9264V9.24242H99.644Z" fill="#374836"/>
<path d="M105.403 10.9356C105.766 10.3784 106.266 9.92833 106.903 9.58541C107.54 9.2425 108.287 9.07104 109.143 9.07104C110.143 9.07104 111.049 9.32108 111.86 9.82116C112.672 10.3212 113.309 11.0357 113.773 11.9644C114.252 12.8931 114.491 13.9719 114.491 15.2006C114.491 16.4294 114.252 17.5153 113.773 18.4583C113.309 19.3871 112.672 20.1085 111.86 20.6229C111.049 21.1231 110.143 21.3731 109.143 21.3731C108.302 21.3731 107.555 21.2016 106.903 20.8587C106.266 20.5158 105.766 20.0729 105.403 19.5299V26.9026H101.686V9.2425H105.403V10.9356ZM110.708 15.2006C110.708 14.2862 110.447 13.5718 109.925 13.0574C109.418 12.5287 108.787 12.2644 108.034 12.2644C107.294 12.2644 106.664 12.5287 106.142 13.0574C105.635 13.5861 105.382 14.3077 105.382 15.222C105.382 16.1365 105.635 16.858 106.142 17.3867C106.664 17.9154 107.294 18.1796 108.034 18.1796C108.773 18.1796 109.403 17.9154 109.925 17.3867C110.447 16.8437 110.708 16.1151 110.708 15.2006Z" fill="#374836"/>
<path d="M120.724 21.3731C119.665 21.3731 118.724 21.1945 117.898 20.8373C117.071 20.4801 116.419 19.9942 115.941 19.3799C115.463 18.7513 115.195 18.051 115.137 17.2795H118.811C118.854 17.6939 119.05 18.0297 119.398 18.2869C119.745 18.5441 120.173 18.6726 120.68 18.6726C121.144 18.6726 121.499 18.5869 121.746 18.4155C122.007 18.2297 122.137 17.9939 122.137 17.7082C122.137 17.3653 121.955 17.1152 121.594 16.958C121.231 16.7866 120.644 16.6009 119.833 16.4008C118.963 16.2008 118.238 15.9936 117.658 15.7793C117.079 15.5506 116.579 15.2006 116.158 14.7291C115.738 14.2434 115.528 13.5932 115.528 12.7788C115.528 12.093 115.716 11.4715 116.093 10.9142C116.484 10.3427 117.05 9.89261 117.789 9.56398C118.543 9.23535 119.434 9.07104 120.463 9.07104C121.985 9.07104 123.181 9.44253 124.05 10.1855C124.935 10.9285 125.442 11.9144 125.572 13.1432H122.137C122.079 12.7288 121.89 12.4001 121.571 12.1573C121.267 11.9144 120.861 11.7929 120.354 11.7929C119.92 11.7929 119.586 11.8786 119.354 12.0501C119.123 12.2072 119.007 12.4288 119.007 12.7145C119.007 13.0574 119.188 13.3146 119.55 13.486C119.926 13.6575 120.507 13.829 121.29 14.0004C122.188 14.229 122.92 14.4576 123.485 14.6863C124.05 14.9005 124.543 15.2578 124.963 15.7578C125.398 16.2437 125.623 16.9009 125.637 17.7296C125.637 18.4298 125.434 19.0584 125.028 19.6156C124.637 20.1586 124.065 20.5872 123.311 20.9016C122.572 21.2159 121.709 21.3731 120.724 21.3731Z" fill="#374836"/>
<path d="M139.238 9.24243V21.2015H135.52V19.5727C135.144 20.1014 134.629 20.53 133.977 20.8587C133.339 21.173 132.629 21.3301 131.847 21.3301C130.919 21.3301 130.099 21.1302 129.389 20.7301C128.679 20.3157 128.129 19.7227 127.738 18.9511C127.347 18.1796 127.151 17.2724 127.151 16.2293V9.24243H130.846V15.7363C130.846 16.5365 131.057 17.158 131.476 17.6009C131.897 18.0439 132.462 18.2653 133.172 18.2653C133.897 18.2653 134.469 18.0439 134.89 17.6009C135.311 17.158 135.52 16.5365 135.52 15.7363V9.24243H139.238Z" fill="#374836"/>
<path d="M156.735 9.11401C158.243 9.11401 159.439 9.56409 160.322 10.4642C161.222 11.3643 161.671 12.6146 161.671 14.2148V21.2017H157.974V14.7077C157.974 13.9362 157.765 13.3433 157.344 12.9289C156.938 12.5003 156.373 12.286 155.649 12.286C154.924 12.286 154.351 12.5003 153.931 12.9289C153.526 13.3433 153.323 13.9362 153.323 14.7077V21.2017H149.626V14.7077C149.626 13.9362 149.417 13.3433 148.996 12.9289C148.59 12.5003 148.025 12.286 147.3 12.286C146.575 12.286 146.003 12.5003 145.582 12.9289C145.177 13.3433 144.974 13.9362 144.974 14.7077V21.2017H141.257V9.24261H144.974V10.7428C145.351 10.2428 145.843 9.84985 146.452 9.56409C147.061 9.26404 147.749 9.11401 148.517 9.11401C149.43 9.11401 150.243 9.3069 150.953 9.69268C151.677 10.0785 152.242 10.6286 152.648 11.343C153.069 10.6857 153.641 10.1499 154.366 9.73555C155.091 9.32119 155.881 9.11401 156.735 9.11401Z" fill="#374836"/>
</g>
<defs>
<clipPath id="clip0_10_683">
<rect width="162" height="28" fill="white"/>
</clipPath>
</defs>
</svg>
