<svg width="130" height="32" viewBox="0 0 130 32" fill="none" xmlns="http://www.w3.org/2000/svg">
<g clip-path="url(#clip0_10_646)">
<path d="M39.123 22.3643H48.3169V19.6215H42.3907V9.29004H39.123V22.3643Z" fill="#374836"/>
<path d="M53.7641 20.5358C52.4534 20.5358 51.7703 19.4021 51.7703 17.7015C51.7703 16.001 52.4534 14.849 53.7641 14.849C55.0749 14.849 55.7764 16.001 55.7764 17.7015C55.7764 19.4021 55.0749 20.5358 53.7641 20.5358ZM53.7826 22.6569C56.8287 22.6569 58.8226 20.5175 58.8226 17.7015C58.8226 14.8855 56.8287 12.7461 53.7826 12.7461C50.7549 12.7461 48.7241 14.8855 48.7241 17.7015C48.7241 20.5175 50.7549 22.6569 53.7826 22.6569Z" fill="#374836"/>
<path d="M64.0953 25.6009C65.4984 25.6009 66.7353 25.2901 67.5661 24.5586C68.323 23.8821 68.8215 22.8581 68.8215 21.4501V13.0021H65.9415V14.0078H65.9045C65.3507 13.2215 64.5015 12.7278 63.2461 12.7278C60.9015 12.7278 59.2769 14.6661 59.2769 17.4089C59.2769 20.2798 61.2522 21.8524 63.3753 21.8524C64.5199 21.8524 65.2399 21.3952 65.7938 20.7735H65.8676V21.7061C65.8676 22.8398 65.3322 23.4981 64.0584 23.4981C63.0615 23.4981 62.563 23.0775 62.3969 22.5838H59.4799C59.7753 24.5404 61.4922 25.6009 64.0953 25.6009ZM64.0769 19.6398C62.9507 19.6398 62.2122 18.7255 62.2122 17.3175C62.2122 15.8912 62.9507 14.9769 64.0769 14.9769C65.3322 14.9769 65.9969 16.0375 65.9969 17.2992C65.9969 18.6158 65.3876 19.6398 64.0769 19.6398Z" fill="#374836"/>
<path d="M74.7431 20.5358C73.4324 20.5358 72.7493 19.4021 72.7493 17.7015C72.7493 16.001 73.4324 14.849 74.7431 14.849C76.0539 14.849 76.7554 16.001 76.7554 17.7015C76.7554 19.4021 76.0539 20.5358 74.7431 20.5358ZM74.7616 22.6569C77.8077 22.6569 79.8016 20.5175 79.8016 17.7015C79.8016 14.8855 77.8077 12.7461 74.7616 12.7461C71.7339 12.7461 69.7031 14.8855 69.7031 17.7015C69.7031 20.5175 71.7339 22.6569 74.7616 22.6569Z" fill="#374836"/>
<path d="M80.6802 22.3643H83.6894V13.002H80.6802V22.3643ZM80.6802 11.7038H83.6894V9.29004H80.6802V11.7038Z" fill="#374836"/>
<path d="M84.9956 25.4546H88.0048V21.3952H88.0418C88.6325 22.1815 89.5002 22.6569 90.7187 22.6569C93.1925 22.6569 94.8356 20.7186 94.8356 17.6832C94.8356 14.8672 93.3033 12.7278 90.7925 12.7278C89.5002 12.7278 88.5771 13.2946 87.931 14.1358H87.8756V13.0021H84.9956V25.4546ZM89.9433 20.3529C88.651 20.3529 87.9125 19.3106 87.9125 17.7929C87.9125 16.2752 88.5771 15.1232 89.8879 15.1232C91.1802 15.1232 91.7894 16.1838 91.7894 17.7929C91.7894 19.3838 91.0879 20.3529 89.9433 20.3529Z" fill="#374836"/>
<path d="M99.7346 22.6569C102.208 22.6569 104.036 21.5964 104.036 19.5484C104.036 17.1529 102.079 16.7324 100.418 16.4581C99.2177 16.2386 98.1469 16.1472 98.1469 15.4889C98.1469 14.9038 98.7192 14.6295 99.4577 14.6295C100.288 14.6295 100.861 14.8855 100.972 15.7266H103.741C103.593 13.8798 102.153 12.7278 99.4762 12.7278C97.2423 12.7278 95.3962 13.7518 95.3962 15.7266C95.3962 17.9209 97.15 18.3598 98.7931 18.6341C100.048 18.8535 101.193 18.9449 101.193 19.7861C101.193 20.3895 100.621 20.7186 99.7162 20.7186C98.7192 20.7186 98.0915 20.2615 97.9808 19.3289H95.1377C95.23 21.3952 96.9654 22.6569 99.7346 22.6569Z" fill="#374836"/>
<path d="M108.124 22.6385C109.435 22.6385 110.265 22.1265 110.948 21.2122H111.004V22.3642H113.884V13.002H110.875V18.2317C110.875 19.3471 110.247 20.1151 109.213 20.1151C108.253 20.1151 107.792 19.5482 107.792 18.5242V13.002H104.801V19.146C104.801 21.2305 105.945 22.6385 108.124 22.6385Z" fill="#374836"/>
<path d="M115.192 22.3644H118.202V17.1164C118.202 16.0009 118.755 15.2146 119.697 15.2146C120.602 15.2146 121.026 15.7998 121.026 16.8055V22.3644H124.035V17.1164C124.035 16.0009 124.571 15.2146 125.531 15.2146C126.435 15.2146 126.86 15.7998 126.86 16.8055V22.3644H129.869V16.2752C129.869 14.1724 128.799 12.7278 126.657 12.7278C125.439 12.7278 124.423 13.2398 123.685 14.3735H123.648C123.168 13.3678 122.226 12.7278 120.989 12.7278C119.623 12.7278 118.719 13.3678 118.128 14.3369H118.072V13.0021H115.192V22.3644Z" fill="#374836"/>
<path fill-rule="evenodd" clip-rule="evenodd" d="M15.9108 0.73291C24.5737 0.73291 31.5964 7.6887 31.5964 16.2691C31.5964 24.8496 24.5737 31.8054 15.9108 31.8054C7.24779 31.8054 0.225098 24.8496 0.225098 16.2691C0.225098 7.6887 7.24779 0.73291 15.9108 0.73291ZM30.9943 16.2691C30.9943 8.01807 24.2411 1.32919 15.9108 1.32919C15.2388 1.32919 14.5771 1.37271 13.9284 1.45706C14.3475 1.42077 14.7717 1.40224 15.2003 1.40224C23.1604 1.40224 29.6134 7.79376 29.6134 15.6781C29.6134 23.5624 23.1604 29.9539 15.2003 29.9539C7.66418 29.9539 1.47894 24.2252 0.841377 16.9246C1.18772 24.8716 7.80199 31.2091 15.9108 31.2091C24.2411 31.2091 30.9943 24.5202 30.9943 16.2691ZM29.0114 15.6781C29.0114 8.12306 22.828 1.99853 15.2003 1.99853C14.581 1.99853 13.9711 2.03891 13.3734 2.11715C13.7414 2.08647 14.1138 2.07082 14.4899 2.07082C21.7473 2.07082 27.6305 7.89807 27.6305 15.0863C27.6305 22.2745 21.7473 28.1017 14.4899 28.1017C7.62789 28.1017 1.99435 22.892 1.40098 16.2481C1.70267 23.5388 7.76545 29.3576 15.2003 29.3576C22.828 29.3576 29.0114 23.2331 29.0114 15.6781ZM14.4899 2.66711C21.4148 2.66711 27.0285 8.22736 27.0285 15.0863C27.0285 21.9452 21.4148 27.5054 14.4899 27.5054C7.72552 27.5054 2.21215 22.1998 1.96035 15.5608C2.504 21.5532 7.58807 26.2495 13.7796 26.2495C20.3337 26.2495 25.6469 20.9869 25.6469 14.4952C25.6469 8.00344 20.3337 2.7409 13.7796 2.7409C13.4405 2.7409 13.1048 2.75498 12.7729 2.78259C13.3343 2.70645 13.9074 2.66711 14.4899 2.66711ZM25.0448 14.4952C25.0448 8.33281 20.0012 3.33719 13.7796 3.33719C13.2539 3.33719 12.7366 3.37284 12.2301 3.44186C12.5067 3.42042 12.7862 3.4095 13.0684 3.4095C18.9198 3.4095 23.6632 8.10774 23.6632 13.9034C23.6632 19.699 18.9198 24.3973 13.0684 24.3973C7.56096 24.3973 3.03503 20.2351 2.52202 14.9132C2.74397 20.8819 7.69922 25.6532 13.7796 25.6532C20.0012 25.6532 25.0448 20.6576 25.0448 14.4952ZM13.0684 4.00578C18.5872 4.00578 23.0611 8.43712 23.0611 13.9034C23.0611 19.3697 18.5872 23.801 13.0684 23.801C7.65825 23.801 3.25229 19.5426 3.0808 14.2252C3.54398 18.8959 7.52074 22.5451 12.358 22.5451C17.5066 22.5451 21.6803 18.4111 21.6803 13.3116C21.6803 8.21205 17.5066 4.07808 12.358 4.07808C12.1219 4.07808 11.8878 4.08677 11.6561 4.10385C12.1175 4.03921 12.589 4.00578 13.0684 4.00578ZM21.0783 13.3116C21.0783 8.54134 17.1741 4.67437 12.358 4.67437C11.9184 4.67437 11.4864 4.70659 11.0642 4.76877C11.2569 4.75511 11.4514 4.74815 11.6477 4.74815C16.093 4.74815 19.6967 8.3175 19.6967 12.7205C19.6967 17.1235 16.093 20.6928 11.6477 20.6928C7.48212 20.6928 4.05565 17.5587 3.64078 13.5413C3.76378 18.2053 7.61953 21.9488 12.358 21.9488C17.1741 21.9488 21.0783 18.0818 21.0783 13.3116ZM11.6477 5.34444C15.7605 5.34444 19.0946 8.64679 19.0946 12.7205C19.0946 16.7942 15.7605 20.0965 11.6477 20.0965C7.58712 20.0965 4.28565 16.8777 4.20227 12.8757C4.57737 16.231 7.44964 18.8406 10.9373 18.8406C14.6798 18.8406 17.7138 15.8356 17.7138 12.1287C17.7138 8.4218 14.6798 5.41674 10.9373 5.41674C10.7941 5.41674 10.6521 5.42113 10.5111 5.42979C10.8817 5.37359 11.2612 5.34444 11.6477 5.34444ZM17.1118 12.1287C17.1118 8.7511 14.3474 6.01303 10.9373 6.01303C10.5948 6.01303 10.2589 6.04064 9.9316 6.09373C10.0291 6.08864 10.1273 6.08607 10.2261 6.08607C13.2658 6.08607 15.7301 8.52679 15.7301 11.5376C15.7301 14.5484 13.2658 16.9892 10.2261 16.9892C7.41539 16.9892 5.09675 14.9023 4.76331 12.2076C4.806 15.5489 7.55383 18.2444 10.9373 18.2444C14.3474 18.2444 17.1118 15.5063 17.1118 12.1287ZM10.2261 6.68235C12.9334 6.68235 15.1281 8.85609 15.1281 11.5376C15.1281 14.2191 12.9334 16.3928 10.2261 16.3928C7.51884 16.3928 5.32416 14.2191 5.32416 11.5376C5.32416 11.5312 5.32418 11.5247 5.3242 11.5183C5.60606 13.5618 7.37526 15.1362 9.51575 15.1362C11.8523 15.1362 13.7464 13.2601 13.7464 10.9458C13.7464 8.63148 11.8523 6.75541 9.51575 6.75541C9.46291 6.75541 9.41029 6.75636 9.35791 6.75827C9.63968 6.70838 9.92983 6.68235 10.2261 6.68235ZM13.1444 10.9458C13.1444 8.96085 11.5198 7.35169 9.51575 7.35169C7.51168 7.35169 5.88706 8.96085 5.88706 10.9458C5.88706 12.9308 7.51168 14.5399 9.51575 14.5399C11.5198 14.5399 13.1444 12.9308 13.1444 10.9458Z" fill="#374836"/>
</g>
<defs>
<clipPath id="clip0_10_646">
<rect width="130" height="32" fill="white"/>
</clipPath>
</defs>
</svg>
