<svg width="136" height="32" viewBox="0 0 136 32" fill="none" xmlns="http://www.w3.org/2000/svg">
<g clip-path="url(#clip0_10_629)">
<path d="M38.7734 23.1999H47.75V20.6138H41.5107V8.53809H38.7734V23.1999Z" fill="#374836"/>
<path d="M53.1441 23.5055C54.2309 23.5055 55.187 23.2611 56.0121 22.7724C56.844 22.2768 57.4915 21.5947 57.9544 20.7259C58.424 19.8502 58.6588 18.8422 58.6588 17.7019C58.6588 16.5683 58.4273 15.5671 57.9645 14.6982C57.5015 13.8226 56.8541 13.137 56.0222 12.6415C55.197 12.146 54.2377 11.8982 53.1441 11.8982C52.0706 11.8982 51.1213 12.1426 50.2961 12.6313C49.4709 13.12 48.8235 13.8022 48.3538 14.6779C47.8843 15.5467 47.6494 16.5547 47.6494 17.7019C47.6494 18.8354 47.8775 19.84 48.3338 20.7156C48.7966 21.5845 49.4407 22.2667 50.2659 22.7622C51.0912 23.2577 52.0505 23.5055 53.1441 23.5055ZM53.1441 20.9193C52.292 20.9193 51.6446 20.6308 51.2019 20.0539C50.7657 19.4701 50.5477 18.6861 50.5477 17.7019C50.5477 16.7448 50.7557 15.9709 51.1717 15.3804C51.5943 14.7831 52.2518 14.4844 53.1441 14.4844C54.0096 14.4844 54.6603 14.7763 55.0964 15.36C55.5392 15.9438 55.7605 16.7244 55.7605 17.7019C55.7605 18.6454 55.5426 19.4192 55.1064 20.0233C54.6771 20.6206 54.0229 20.9193 53.1441 20.9193Z" fill="#374836"/>
<path d="M64.0721 23.5055C64.582 23.5055 65.0516 23.4444 65.481 23.3222C65.9171 23.2 66.3129 23.0269 66.6685 22.8029V23.9128C66.6819 24.32 66.5779 24.6594 66.3565 24.9309C66.1418 25.2092 65.8533 25.4163 65.4911 25.552C65.1288 25.6946 64.743 25.7659 64.3338 25.7659C63.9513 25.7659 63.5958 25.681 63.2671 25.5113C62.945 25.3416 62.6967 25.0939 62.5223 24.768L59.9864 26.0102C60.4023 26.7229 60.996 27.2965 61.7676 27.7309C62.5391 28.1721 63.3878 28.3928 64.3136 28.3928C65.112 28.3928 65.8534 28.2841 66.5376 28.0669C67.222 27.8565 67.7989 27.5341 68.2685 27.0996C68.7449 26.6652 69.0703 26.112 69.2447 25.44C69.3051 25.2024 69.3453 24.9615 69.3655 24.7171C69.3923 24.4796 69.4057 24.225 69.4057 23.9535V12.2036H67.0106V12.8146C66.6416 12.5227 66.2223 12.2987 65.7527 12.1426C65.2897 11.9796 64.7766 11.8982 64.213 11.8982C63.1731 11.8982 62.2674 12.1494 61.4959 12.6516C60.7243 13.154 60.1239 13.8429 59.6945 14.7186C59.2718 15.5874 59.0605 16.5819 59.0605 17.7019C59.0605 18.8015 59.2685 19.7891 59.6845 20.6648C60.1071 21.5404 60.6941 22.2328 61.4455 22.7419C62.1969 23.2509 63.0725 23.5055 64.0721 23.5055ZM64.5149 21.0415C63.9245 21.0415 63.4415 20.8921 63.0657 20.5935C62.6901 20.2948 62.4116 19.8944 62.2305 19.392C62.0494 18.8829 61.9588 18.3196 61.9588 17.7019C61.9588 17.0909 62.0527 16.5344 62.2406 16.032C62.4284 15.5229 62.7169 15.1191 63.106 14.8204C63.5018 14.5149 64.005 14.3622 64.6155 14.3622C65.4743 14.3622 66.0881 14.6711 66.4571 15.2888C66.8261 15.8996 67.0106 16.704 67.0106 17.7019C67.0106 18.6996 66.8227 19.5074 66.4471 20.1251C66.0781 20.736 65.434 21.0415 64.5149 21.0415Z" fill="#374836"/>
<path d="M75.9067 23.5055C76.9936 23.5055 77.9497 23.2611 78.7748 22.7724C79.6066 22.2768 80.2542 21.5947 80.7167 20.7259C81.1864 19.8502 81.4212 18.8422 81.4212 17.7019C81.4212 16.5683 81.1903 15.5671 80.727 14.6982C80.2644 13.8226 79.6169 13.137 78.7849 12.6415C77.9597 12.146 77.0003 11.8982 75.9067 11.8982C74.8333 11.8982 73.884 12.1426 73.0588 12.6313C72.2336 13.12 71.5862 13.8022 71.1165 14.6779C70.6469 15.5467 70.4121 16.5547 70.4121 17.7019C70.4121 18.8354 70.6402 19.84 71.0965 20.7156C71.5593 21.5845 72.2034 22.2667 73.0286 22.7622C73.8539 23.2577 74.8132 23.5055 75.9067 23.5055ZM75.9067 20.9193C75.0547 20.9193 74.4073 20.6308 73.9645 20.0539C73.5284 19.4701 73.3104 18.6861 73.3104 17.7019C73.3104 16.7448 73.5184 15.9709 73.9344 15.3804C74.357 14.7831 75.0144 14.4844 75.9067 14.4844C76.7722 14.4844 77.423 14.7763 77.8591 15.36C78.3019 15.9438 78.5232 16.7244 78.5232 17.7019C78.5232 18.6454 78.3052 19.4192 77.8691 20.0233C77.4398 20.6206 76.7856 20.9193 75.9067 20.9193Z" fill="#374836"/>
<path d="M82.6279 10.6763H85.3653V8.23267H82.6279V10.6763ZM82.6279 23.1999H85.3653V12.2035H82.6279V23.1999Z" fill="#374836"/>
<path d="M87.1543 28.0873H89.9115V22.8029C90.2673 23.0269 90.6595 23.2 91.0888 23.3222C91.5253 23.4444 91.9981 23.5055 92.5081 23.5055C93.5076 23.5055 94.3836 23.2509 95.1348 22.7419C95.886 22.2328 96.4695 21.5404 96.8854 20.6648C97.3084 19.7891 97.5196 18.8015 97.5196 17.7019C97.5196 16.5819 97.3053 15.5874 96.8759 14.7186C96.4529 13.8429 95.8559 13.154 95.0842 12.6516C94.3125 12.1494 93.4071 11.8982 92.3674 11.8982C91.8036 11.8982 91.2873 11.9796 90.8176 12.1426C90.3543 12.2987 89.9383 12.5227 89.5699 12.8146V12.2036H87.1543V28.0873ZM92.0653 21.0415C91.1529 21.0415 90.5092 20.736 90.1329 20.1251C89.7573 19.5074 89.5699 18.6996 89.5699 17.7019C89.5699 16.704 89.7541 15.8996 90.1234 15.2888C90.499 14.6711 91.1125 14.3622 91.9649 14.3622C92.5753 14.3622 93.075 14.5149 93.4641 14.8204C93.8602 15.1191 94.152 15.5229 94.3394 16.032C94.5276 16.5344 94.6216 17.0909 94.6216 17.7019C94.6216 18.3196 94.5307 18.8829 94.3496 19.392C94.1686 19.8944 93.8902 20.2948 93.5147 20.5935C93.1391 20.8921 92.656 21.0415 92.0653 21.0415Z" fill="#374836"/>
<path d="M102.479 23.5055C103.901 23.5055 105.015 23.1831 105.82 22.5382C106.624 21.8933 107.027 21.0076 107.027 19.8808C107.027 19.0255 106.765 18.3501 106.243 17.8546C105.725 17.3591 104.847 16.9484 103.606 16.6226C102.76 16.4053 102.129 16.2288 101.713 16.0931C101.305 15.9574 101.033 15.825 100.898 15.696C100.771 15.5671 100.708 15.4076 100.708 15.2175C100.708 14.8984 100.858 14.6541 101.16 14.4844C101.469 14.3147 101.875 14.2468 102.378 14.2808C103.444 14.3622 104.029 14.8238 104.129 15.6655L106.927 15.1564C106.786 14.1586 106.303 13.3678 105.477 12.784C104.652 12.1935 103.599 11.8982 102.318 11.8982C101.003 11.8982 99.9526 12.2104 99.1674 12.8349C98.383 13.4594 97.9901 14.3011 97.9901 15.36C97.9901 16.2017 98.2621 16.8669 98.8053 17.3556C99.3485 17.8376 100.285 18.2516 101.613 18.5979C102.398 18.8083 102.975 18.978 103.344 19.1069C103.719 19.2359 103.961 19.3683 104.068 19.504C104.176 19.633 104.229 19.8061 104.229 20.0233C104.229 20.3695 104.095 20.641 103.827 20.8379C103.559 21.0279 103.176 21.1229 102.68 21.1229C102.076 21.1229 101.576 20.977 101.181 20.6851C100.792 20.3932 100.539 19.9894 100.425 19.4735L97.6279 19.9011C97.809 21.0483 98.319 21.9375 99.1579 22.5688C100.003 23.1932 101.11 23.5055 102.479 23.5055Z" fill="#374836"/>
<path d="M112.077 23.5259C112.862 23.5259 113.546 23.3935 114.13 23.1287C114.714 22.864 115.203 22.5111 115.599 22.0699V23.2H118.014V12.2036H115.257V17.7833C115.257 18.4621 115.18 19.0119 115.025 19.4327C114.878 19.8468 114.687 20.1624 114.452 20.3796C114.217 20.5901 113.966 20.7326 113.697 20.8073C113.429 20.8819 113.178 20.9193 112.943 20.9193C112.359 20.9193 111.906 20.7869 111.584 20.5222C111.269 20.2575 111.04 19.9283 110.9 19.5346C110.759 19.1408 110.675 18.7506 110.648 18.3636C110.621 17.9699 110.608 17.6475 110.608 17.3963V12.2036H107.83V18.3739C107.83 18.5571 107.844 18.849 107.87 19.2495C107.897 19.6499 107.975 20.0946 108.102 20.5833C108.229 21.0652 108.44 21.5302 108.736 21.9782C109.038 22.4262 109.457 22.7961 109.994 23.088C110.53 23.3799 111.225 23.5259 112.077 23.5259Z" fill="#374836"/>
<path d="M119.6 23.2001H122.357V16.5411C122.357 15.9099 122.528 15.3974 122.87 15.0037C123.219 14.6032 123.678 14.403 124.249 14.403C124.846 14.403 125.312 14.6066 125.648 15.0139C125.989 15.4144 126.161 15.9778 126.161 16.7041V23.2001H128.898V16.5411C128.898 15.9099 129.069 15.3974 129.411 15.0037C129.76 14.6032 130.219 14.403 130.79 14.403C131.387 14.403 131.853 14.6066 132.188 15.0139C132.531 15.4144 132.702 15.9778 132.702 16.7041V23.2001H135.439V15.971C135.439 14.7695 135.12 13.7989 134.483 13.059C133.853 12.3123 132.917 11.939 131.675 11.939C130.978 11.939 130.337 12.0917 129.753 12.3971C129.169 12.7026 128.704 13.1201 128.354 13.6495C128.073 13.1337 127.67 12.7196 127.147 12.4074C126.623 12.0951 125.973 11.939 125.195 11.939C124.537 11.939 123.933 12.0714 123.383 12.3361C122.833 12.594 122.377 12.9504 122.014 13.4051V12.2037H119.6V23.2001Z" fill="#374836"/>
<path d="M15.814 0C7.08014 0 0 7.16344 0 16C8.73381 16 15.814 8.83656 15.814 0Z" fill="#374836"/>
<path d="M15.8135 32C24.5473 32 31.6274 24.8366 31.6274 16C22.8936 16 15.8135 23.1634 15.8135 32Z" fill="#374836"/>
<path d="M15.8135 0C24.5473 0 31.6274 7.16344 31.6274 16C22.8936 16 15.8135 8.83656 15.8135 0Z" fill="#374836"/>
<path d="M15.814 32C7.08014 32 -7.63533e-07 24.8366 0 16C8.73381 16 15.814 23.1634 15.814 32Z" fill="#374836"/>
</g>
<defs>
<clipPath id="clip0_10_629">
<rect width="136" height="32" fill="white"/>
</clipPath>
</defs>
</svg>
