<svg width="121" height="32" viewBox="0 0 121 32" fill="none" xmlns="http://www.w3.org/2000/svg">
<path d="M27.9768 11.2C28.3068 11.2 28.4168 11.3188 28.4168 11.6388V18.88H32.1477C32.4685 18.88 32.5877 18.9988 32.5877 19.3188V19.9588C32.5877 20.2788 32.4685 20.3977 32.1477 20.3977H27.2343C26.9135 20.3977 26.7852 20.2788 26.7852 19.9588V11.6388C26.7852 11.3188 26.9135 11.2 27.2343 11.2H27.9768Z" fill="#374836"/>
<path d="M35.8418 14.3909C35.8418 12.2789 37.1801 11.0081 39.5085 11.0081C41.8368 11.0081 43.1751 12.2789 43.1751 14.3909V17.2069C43.1751 19.3189 41.8276 20.5898 39.5085 20.5898C37.1893 20.5898 35.8418 19.3189 35.8418 17.2069V14.3909ZM41.6351 14.3909C41.6351 13.2023 40.8926 12.5623 39.5543 12.5623C38.216 12.5623 37.4826 13.2115 37.4826 14.3909V17.2252C37.4826 18.4229 38.216 19.0538 39.5543 19.0538C40.8926 19.0538 41.6351 18.3955 41.6351 17.2252V14.3909Z" fill="#374836"/>
<path d="M54.0924 15.36C54.4499 15.36 54.5324 15.4789 54.5324 15.7989V17.536C54.5421 17.9452 54.4599 18.3514 54.2918 18.7247C54.1235 19.0981 53.8738 19.4291 53.5607 19.6937C52.7831 20.3113 51.8026 20.6177 50.8107 20.5531C48.4365 20.5531 47.144 19.2823 47.144 17.1703V14.336C47.144 12.2514 48.4824 10.9714 50.8107 10.9714C52.644 10.9714 53.8357 11.6937 54.3399 13.1383C54.3681 13.1926 54.3832 13.2527 54.3841 13.3137C54.3849 13.3749 54.3714 13.4354 54.3447 13.4904C54.3181 13.5454 54.2788 13.5935 54.2302 13.6308C54.1817 13.668 54.125 13.6935 54.0649 13.7051L53.3499 13.952C53.0382 14.0617 52.9099 13.9977 52.7999 13.6777C52.648 13.2872 52.37 12.9583 52.0097 12.743C51.6495 12.5278 51.2276 12.4384 50.8107 12.4891C49.4632 12.4891 48.7299 13.1383 48.7299 14.3177V17.2252C48.7299 18.4229 49.4724 19.0537 50.8107 19.0537C52.149 19.0537 52.974 18.4412 52.974 17.5452V16.8686H50.9849C50.6549 16.8686 50.5357 16.7406 50.5357 16.4206V15.7989C50.5357 15.4789 50.6549 15.36 50.9849 15.36H54.0924Z" fill="#374836"/>
<path d="M58.3184 14.3909C58.3184 12.2789 59.6567 11.0081 61.985 11.0081C64.3134 11.0081 65.6517 12.2789 65.6517 14.3909V17.2069C65.6517 19.3189 64.3042 20.5898 61.985 20.5898C59.6659 20.5898 58.3184 19.3189 58.3184 17.2069V14.3909ZM64.1025 14.3909C64.1025 13.2023 63.36 12.5623 62.0309 12.5623C60.7017 12.5623 59.95 13.2115 59.95 14.3909V17.2252C59.95 18.4229 60.6925 19.0538 62.0309 19.0538C63.3692 19.0538 64.1025 18.3955 64.1025 17.2252V14.3909Z" fill="#374836"/>
<path d="M69.9692 11.4651C69.9692 11.264 70.0334 11.2 70.2351 11.2H70.6567C70.8584 11.2 70.9042 11.264 70.9042 11.4651V20.1325C70.9042 20.3337 70.9042 20.3977 70.6567 20.3977H70.2351C70.0334 20.3977 69.9692 20.3337 69.9692 20.1325V11.4651Z" fill="#374836"/>
<path d="M79.2548 11.2C80.0182 11.2 80.7503 11.5024 81.2901 12.0408C81.8299 12.5792 82.1332 13.3094 82.1332 14.0708C82.1332 14.8322 81.8299 15.5625 81.2901 16.1008C80.7503 16.6392 80.0182 16.9417 79.2548 16.9417H76.5048V20.1325C76.5048 20.3337 76.459 20.3977 76.2665 20.3977H75.8357C75.6432 20.3977 75.5698 20.3337 75.5698 20.1325V11.4651C75.5698 11.264 75.6432 11.2 75.8357 11.2H79.2548ZM79.1723 16.0365C79.4348 16.0365 79.6946 15.985 79.9371 15.8848C80.1795 15.7846 80.3998 15.6378 80.5854 15.4528C80.7709 15.2677 80.9181 15.0479 81.0186 14.8062C81.119 14.5643 81.1707 14.3051 81.1707 14.0434C81.1707 13.7816 81.119 13.5224 81.0186 13.2806C80.9181 13.0389 80.7709 12.8191 80.5854 12.634C80.3998 12.449 80.1795 12.3021 79.9371 12.2019C79.6946 12.1018 79.4348 12.0502 79.1723 12.0502H76.4223V16.0365H79.1723Z" fill="#374836"/>
<path d="M89.2926 11.0172C90.0004 10.9393 90.7144 11.0912 91.3287 11.4502C91.9427 11.8094 92.4249 12.3565 92.7026 13.0104C92.776 13.1567 92.7026 13.2755 92.556 13.3487L92.1526 13.5315C91.9876 13.5955 91.9235 13.5864 91.8226 13.4127C91.6149 12.9274 91.2579 12.5205 90.803 12.251C90.3483 11.9814 89.8193 11.8631 89.2926 11.9132C87.7435 11.9132 86.9001 12.5258 86.9001 13.6229C86.8912 13.9582 87.004 14.2855 87.218 14.5443C87.432 14.803 87.7326 14.9759 88.0643 15.0309C88.5573 15.1913 89.0685 15.2896 89.586 15.3235C90.2123 15.3568 90.8303 15.4832 91.4193 15.6984C91.8712 15.8409 92.2599 16.134 92.5202 16.5286C92.7805 16.9232 92.897 17.3952 92.8493 17.8652C92.8493 19.5749 91.6026 20.6081 89.311 20.6081C88.5593 20.6939 87.8008 20.5201 87.162 20.1158C86.5232 19.7116 86.0425 19.1012 85.8001 18.3864C85.7839 18.3538 85.7752 18.3181 85.7745 18.2817C85.7737 18.2453 85.7812 18.2093 85.796 18.1761C85.8109 18.1429 85.8329 18.1134 85.8606 18.0897C85.8882 18.0659 85.9208 18.0486 85.956 18.0389L86.3593 17.8927C86.391 17.8797 86.4252 17.8735 86.4595 17.8744C86.4938 17.8753 86.5275 17.8833 86.5586 17.898C86.5896 17.9126 86.6172 17.9334 86.6397 17.9593C86.6623 17.9852 86.6791 18.0154 86.6893 18.0481C86.8944 18.5646 87.259 19.0025 87.7304 19.2985C88.2017 19.5943 88.7554 19.7328 89.311 19.6938C91.0435 19.6938 91.896 19.0904 91.896 17.8652C91.9125 17.5432 91.8135 17.2259 91.6167 16.9697C91.4204 16.7136 91.1393 16.5352 90.8235 16.4664C90.3492 16.3253 89.86 16.2394 89.366 16.2104L88.376 16.0824C88.0661 16.0168 87.7602 15.9344 87.4593 15.8355C87.1621 15.746 86.8851 15.6001 86.6435 15.4058C86.4003 15.1862 86.2086 14.9159 86.0818 14.6141C85.9551 14.3123 85.8965 13.9865 85.9101 13.6595C85.9743 12.0595 87.1751 11.0172 89.2926 11.0172Z" fill="#374836"/>
<path d="M97.7899 17.2708C97.8284 17.9174 98.1135 18.5248 98.5865 18.9688C99.0595 19.4129 99.6846 19.6601 100.334 19.6601C100.983 19.6601 101.608 19.4129 102.081 18.9688C102.554 18.5248 102.838 17.9174 102.877 17.2708V11.4651C102.877 11.264 102.942 11.2 103.143 11.2H103.565C103.767 11.2 103.831 11.264 103.831 11.4651V17.2617C103.831 19.3371 102.602 20.5897 100.338 20.5897C98.074 20.5897 96.8457 19.3371 96.8457 17.2617V11.4651C96.8457 11.264 96.9099 11.2 97.1024 11.2H97.5332C97.7257 11.2 97.7899 11.264 97.7899 11.4651V17.2708Z" fill="#374836"/>
<path d="M116.481 11.2C116.683 11.2 116.747 11.264 116.747 11.4652V20.1326C116.747 20.3338 116.683 20.3978 116.481 20.3978H116.096C115.903 20.3978 115.839 20.3338 115.839 20.1326V14.8572C115.839 14.0896 115.891 13.3229 115.995 12.5623H115.94C115.654 13.2578 115.319 13.9329 114.941 14.5829L112.97 18.048C112.946 18.1082 112.904 18.1596 112.85 18.1955C112.796 18.2314 112.733 18.2501 112.668 18.2492H112.411C112.345 18.2496 112.281 18.2306 112.225 18.195C112.17 18.1592 112.126 18.1082 112.099 18.048L110.101 14.5463C109.746 13.9057 109.44 13.2395 109.184 12.5532H109.129C109.223 13.3207 109.272 14.0931 109.276 14.8663V20.1326C109.276 20.3338 109.212 20.3978 109.01 20.3978H108.653C108.451 20.3978 108.387 20.3338 108.387 20.1326V11.4652C108.387 11.264 108.451 11.2 108.653 11.2H108.983C109.058 11.1931 109.134 11.2095 109.199 11.2471C109.265 11.2848 109.317 11.3419 109.349 11.4103L112.558 17.0972L115.748 11.4652C115.848 11.2732 115.903 11.2458 116.105 11.2458L116.481 11.2Z" fill="#374836"/>
<path d="M11.669 19.0081V25.6183C11.669 25.8718 11.5681 26.1148 11.3884 26.2939C11.2088 26.4731 10.9652 26.5738 10.7111 26.5738C10.4571 26.5738 10.2134 26.4731 10.0338 26.2939C9.8541 26.1148 9.75317 25.8718 9.75317 25.6183V19.0172C10.0199 19.2115 10.3397 19.3199 10.6698 19.3281C11.0297 19.3383 11.3824 19.2254 11.669 19.0081ZM19.8273 17.0972C19.5842 17.0972 19.351 17.1936 19.1792 17.365C19.0073 17.5364 18.9107 17.769 18.9107 18.0115V19.1635C18.9107 19.4169 19.0116 19.6599 19.1913 19.8391C19.3708 20.0183 19.6145 20.1189 19.8686 20.1189C20.1227 20.1189 20.3663 20.0183 20.5459 19.8391C20.7256 19.6599 20.8265 19.4169 20.8265 19.1635V18.0572C20.8337 17.9261 20.8124 17.795 20.7642 17.6728C20.716 17.5507 20.642 17.4402 20.5471 17.3492C20.4523 17.2581 20.3389 17.1885 20.2148 17.1449C20.0906 17.1015 19.9584 17.0852 19.8273 17.0972ZM7.67234 21.5132C7.34249 21.5033 7.02318 21.3951 6.75567 21.2023V27.8309C6.75567 28.0855 6.85707 28.3298 7.03758 28.5098C7.21808 28.6898 7.4629 28.7909 7.71817 28.7909C7.97344 28.7909 8.21826 28.6898 8.39876 28.5098C8.57927 28.3298 8.68067 28.0855 8.68067 27.8309V21.2481C8.38133 21.4411 8.02815 21.534 7.67234 21.5132ZM16.839 15.1132C16.7148 15.107 16.5907 15.1261 16.4741 15.1693C16.3576 15.2124 16.2511 15.2788 16.1609 15.3643C16.0709 15.4498 15.9993 15.5527 15.9504 15.6667C15.9015 15.7807 15.8763 15.9035 15.8765 16.0275V21.1201C15.8765 21.3747 15.9779 21.6189 16.1584 21.7989C16.339 21.9789 16.5837 22.0801 16.839 22.0801C17.0943 22.0801 17.3391 21.9789 17.5196 21.7989C17.7001 21.6189 17.8015 21.3747 17.8015 21.1201V16.0915C17.8088 15.9596 17.7874 15.8276 17.7386 15.7047C17.6899 15.5819 17.6151 15.471 17.5192 15.3797C17.4233 15.2885 17.3088 15.219 17.1835 15.1762C17.0582 15.1333 16.925 15.1181 16.7932 15.1315L16.839 15.1132ZM13.7957 17.0698C13.4504 17.0674 13.1143 16.9589 12.8332 16.7589V23.4058C12.8332 23.6604 12.9346 23.9046 13.115 24.0846C13.2956 24.2647 13.5404 24.3658 13.7957 24.3658C14.051 24.3658 14.2957 24.2647 14.4763 24.0846C14.6568 23.9046 14.7582 23.6604 14.7582 23.4058V16.7681C14.4674 16.9841 14.1124 17.0967 13.7498 17.0881L13.7957 17.0698ZM5.5915 22.1623V3.59321C5.58909 3.36686 5.49724 3.15061 5.33591 2.9914C5.17458 2.8322 4.95679 2.74291 4.72984 2.74292H4.52817C4.30122 2.74291 4.08343 2.8322 3.9221 2.9914C3.76076 3.15061 3.66891 3.36686 3.6665 3.59321V22.1623C3.6665 22.3903 3.75729 22.6089 3.91888 22.7701C4.08047 22.9313 4.29965 23.0218 4.52817 23.0218H4.72984C4.95837 23.0218 5.17754 22.9313 5.33913 22.7701C5.50073 22.6089 5.5915 22.3903 5.5915 22.1623ZM7.77317 20.8092H7.5715C7.34298 20.8092 7.1238 20.7187 6.96221 20.5575C6.80062 20.3963 6.70984 20.1777 6.70984 19.9498V5.80578C6.71226 5.57944 6.8041 5.36317 6.96543 5.20398C7.12676 5.04477 7.34456 4.95548 7.5715 4.95549H7.77317C8.00012 4.95548 8.21791 5.04477 8.37924 5.20398C8.54058 5.36317 8.63243 5.57944 8.63484 5.80578V19.9681C8.63484 20.196 8.54405 20.4146 8.38246 20.5758C8.22087 20.737 8.0017 20.8275 7.77317 20.8275V20.8092ZM10.8073 18.6332H10.5965C10.3705 18.6332 10.1536 18.5436 9.9937 18.3842C9.83384 18.2247 9.744 18.0085 9.744 17.7829V8.00006C9.74281 7.88763 9.76399 7.77608 9.80625 7.67186C9.8485 7.56764 9.91111 7.47283 9.9904 7.3929C10.0697 7.31298 10.1641 7.24953 10.2682 7.20623C10.3722 7.16292 10.4838 7.14062 10.5965 7.14063H10.8073C11.0343 7.14305 11.2511 7.23465 11.4107 7.39556C11.5704 7.55648 11.6598 7.7737 11.6598 8.00006V17.7829C11.6598 18.0085 11.57 18.2247 11.4101 18.3842C11.2503 18.5436 11.0335 18.6332 10.8073 18.6332ZM13.8415 16.3932H13.649C13.422 16.3932 13.2042 16.304 13.0429 16.1447C12.8816 15.9855 12.7897 15.7693 12.7873 15.5429V10.2766C12.7798 10.1592 12.7965 10.0416 12.8365 9.93085C12.8763 9.82022 12.9387 9.71883 13.0194 9.63316C13.1002 9.5474 13.1977 9.47919 13.3061 9.43257C13.4143 9.38603 13.531 9.36207 13.649 9.36235H13.8507C14.0792 9.36235 14.2984 9.45286 14.46 9.61405C14.6216 9.77524 14.7123 9.99385 14.7123 10.2218V15.5246C14.7135 15.6383 14.6922 15.751 14.6494 15.8563C14.6066 15.9617 14.5434 16.0575 14.4632 16.1383C14.3831 16.219 14.2877 16.2831 14.1825 16.3269C14.0774 16.3707 13.9646 16.3932 13.8507 16.3932H13.8415ZM16.8848 14.4275H16.6832C16.4546 14.4275 16.2355 14.337 16.0739 14.1758C15.9123 14.0146 15.8215 13.796 15.8215 13.5681V12.2058C15.8239 11.9794 15.9157 11.7632 16.0771 11.604C16.2384 11.4447 16.4562 11.3555 16.6832 11.3555H16.8848C17.1118 11.3555 17.3296 11.4447 17.4909 11.604C17.6523 11.7632 17.7441 11.9794 17.7465 12.2058V13.5681C17.7465 13.7944 17.657 14.0117 17.4974 14.1726C17.3378 14.3335 17.121 14.4251 16.894 14.4275H16.8848Z" fill="#374836"/>
</svg>
