<svg width="105" height="32" viewBox="0 0 105 32" fill="none" xmlns="http://www.w3.org/2000/svg">
<path d="M18.4785 9.11206H20.0694V20.2481H24.8422V21.8481H18.4785V9.11206ZM29.7978 9.11206C30.7418 9.11206 31.6645 9.39358 32.4494 9.92102C33.2343 10.4485 33.8461 11.1981 34.2073 12.0752C34.5685 12.9523 34.663 13.9174 34.4788 14.8485C34.2947 15.7796 33.8402 16.6349 33.1726 17.3061C32.5052 17.9775 31.6547 18.4346 30.7289 18.6198C29.8032 18.805 28.8435 18.71 27.9714 18.3467C27.0993 17.9833 26.3539 17.3681 25.8295 16.5788C25.305 15.7894 25.0251 14.8614 25.0251 13.9121C25.0251 13.2817 25.1486 12.6575 25.3884 12.0752C25.6282 11.4928 25.9798 10.9637 26.423 10.518C26.8662 10.0722 27.3923 9.71862 27.9714 9.47742C28.5504 9.23622 29.1711 9.11206 29.7978 9.11206ZM29.7978 17.1121C30.4271 17.1121 31.0423 16.9244 31.5656 16.5728C32.0888 16.2211 32.4967 15.7213 32.7374 15.1366C32.9783 14.5519 33.0413 13.9085 32.9185 13.2877C32.7957 12.667 32.4927 12.0969 32.0477 11.6493C31.6027 11.2018 31.0358 10.897 30.4186 10.7736C29.8013 10.6501 29.1616 10.7134 28.5802 10.9557C27.9988 11.1978 27.5018 11.608 27.1522 12.1342C26.8026 12.6605 26.616 13.2792 26.616 13.9121C26.6202 14.758 26.9573 15.5678 27.5535 16.1645C28.1498 16.7611 28.9567 17.0961 29.7978 17.0961V17.1121ZM26.616 20.2641H32.9797V21.8641H26.616V20.2641ZM46.9797 21.8641H45.3887V20.7201C44.3628 21.4423 43.1411 21.8305 41.8887 21.8321C40.8208 21.8393 39.7683 21.5761 38.8282 21.0667C37.8879 20.5573 37.0903 19.8181 36.5088 18.9173C35.9273 18.0165 35.5805 16.983 35.5005 15.912C35.4203 14.841 35.6096 13.7669 36.0507 12.7889C36.4917 11.8107 37.1705 10.9599 38.0243 10.3149C38.8783 9.6699 39.8798 9.25134 40.9367 9.0979C41.9937 8.94438 43.0721 9.06094 44.0725 9.4367C45.0729 9.81246 45.9633 10.4353 46.6615 11.2481L45.4922 12.2961C44.9611 11.6989 44.29 11.245 43.5398 10.9757C42.7897 10.7062 41.9844 10.6299 41.1975 10.7537C40.4105 10.8774 39.6669 11.1973 39.0343 11.6841C38.4017 12.171 37.9003 12.8093 37.5759 13.5409C37.2515 14.2725 37.1143 15.0741 37.1768 15.8728C37.2393 16.6714 37.4995 17.4416 37.9338 18.1131C38.3681 18.7846 38.9626 19.3362 39.6631 19.7175C40.3636 20.0988 41.1479 20.2977 41.9444 20.2961C42.6054 20.2974 43.259 20.1552 43.8604 19.879C44.4616 19.6029 44.9966 19.1993 45.4285 18.6961H41.1331V17.0961H46.9956L46.9797 21.8641ZM52.8342 9.14406C53.7782 9.14406 54.7009 9.42558 55.4858 9.95302C56.2706 10.4805 56.8824 11.2301 57.2436 12.1072C57.6049 12.9843 57.6994 13.9494 57.5152 14.8805C57.3311 15.8116 56.8765 16.6669 56.209 17.3381C55.5415 18.0095 54.6911 18.4666 53.7653 18.6518C52.8395 18.837 51.8799 18.742 51.0078 18.3787C50.1356 18.0153 49.3903 17.4001 48.8658 16.6108C48.3414 15.8214 48.0615 14.8934 48.0615 13.9441C48.0573 13.3097 48.1782 12.6808 48.4171 12.0937C48.6561 11.5065 49.0084 10.9729 49.4537 10.5236C49.899 10.0742 50.4284 9.71814 51.0114 9.47582C51.5944 9.23358 52.2193 9.1099 52.8501 9.11206L52.8342 9.14406ZM52.8342 17.1441C53.4635 17.1441 54.0787 16.9564 54.6019 16.6048C55.1252 16.2531 55.533 15.7533 55.7738 15.1686C56.0147 14.5839 56.0777 13.9405 55.9548 13.3197C55.8321 12.699 55.529 12.1289 55.0841 11.6813C54.6391 11.2338 54.0722 10.929 53.455 10.8056C52.8377 10.6821 52.198 10.7454 51.6166 10.9877C51.0352 11.2298 50.5382 11.64 50.1886 12.1662C49.839 12.6925 49.6524 13.3112 49.6524 13.9441C49.6649 14.7872 50.0079 15.5913 50.6067 16.1815C51.2054 16.7717 52.0117 17.1004 52.8501 17.0961L52.8342 17.1441ZM49.6524 20.2961H56.016V21.8961H49.6524V20.2961ZM59.3012 9.11206H60.8922V21.8321H59.3012V9.11206ZM63.0956 9.11206H64.6865C64.7684 9.10334 64.851 9.10334 64.9331 9.11206C65.5993 9.03934 66.2734 9.10862 66.9113 9.31526C67.5492 9.52198 68.1367 9.86142 68.6354 10.3116C69.1343 10.7617 69.5332 11.3125 69.8063 11.9281C70.0794 12.5436 70.2205 13.2101 70.2205 13.8841C70.2205 14.5581 70.0794 15.2245 69.8063 15.8401C69.5332 16.4556 69.1343 17.0064 68.6354 17.4565C68.1367 17.9067 67.5492 18.2461 66.9113 18.4529C66.2734 18.6595 65.5993 18.7288 64.9331 18.6561H64.6865V21.8561H63.0956V9.11206ZM64.6865 10.7121V17.0401H64.9331C65.3824 17.1002 65.8393 17.0632 66.2733 16.9313C66.7072 16.7994 67.1082 16.5758 67.4492 16.2755C67.7903 15.9752 68.0635 15.605 68.2507 15.1898C68.438 14.7746 68.5349 14.324 68.5349 13.8681C68.5349 13.4121 68.438 12.9615 68.2507 12.5463C68.0635 12.1311 67.7903 11.7609 67.4492 11.4606C67.1082 11.1602 66.7072 10.9367 66.2733 10.8048C65.8393 10.6729 65.3824 10.6359 64.9331 10.6961C64.8464 10.7051 64.761 10.7239 64.6785 10.7521L64.6865 10.7121ZM76.149 10.0321L74.9717 10.9681C74.7686 10.7546 74.5091 10.6039 74.2238 10.5337C73.9385 10.4634 73.6392 10.4765 73.361 10.5715C73.0827 10.6664 72.8373 10.8392 72.6534 11.0696C72.4695 11.3 72.3548 11.5784 72.3228 11.8721V12.0001C72.3228 12.7041 72.8081 13.1761 73.7547 13.2401C77.3978 13.4641 79.0683 15.1841 79.0683 17.4561V17.6001C78.9742 18.4993 78.6253 19.3524 78.0631 20.058C77.5008 20.7636 76.7489 21.2918 75.8968 21.5801C75.0446 21.8682 74.1281 21.9042 73.2562 21.6837C72.3843 21.4632 71.5937 20.9954 70.9785 20.3361L72.1956 19.3921C72.4788 19.6974 72.8248 19.9371 73.2094 20.0946C73.594 20.2521 74.008 20.3236 74.4228 20.3041C75.189 20.3447 75.9411 20.0861 76.5221 19.5821C77.1032 19.0783 77.4682 18.3681 77.541 17.6001V17.4881C77.541 15.3521 75.4569 14.9601 73.6512 14.7841C71.9808 14.6241 70.7797 13.5761 70.7797 12.0641V12.0001C70.8385 11.2129 71.1958 10.4785 71.7775 9.94854C72.3592 9.41854 73.1211 9.13342 73.9058 9.15206C74.3217 9.13974 74.7354 9.21518 75.1204 9.37366C75.5054 9.53214 75.8531 9.77006 76.141 10.0721L76.149 10.0321ZM85.2967 20.2081C87.2774 20.2081 88.8444 18.0561 88.8444 15.4081V9.00806H90.4353V15.4081C90.4353 18.9281 88.1444 21.7681 85.3285 21.7681C82.5126 21.7681 80.2217 18.9281 80.2217 15.4081V9.00806H81.8126V15.4081C81.749 18.0961 83.316 20.2481 85.2887 20.2481L85.2967 20.2081ZM102.646 21.8081H101.055V13.8881L97.3876 18.6881L93.7206 13.8881V21.8321H92.1297V9.11206L97.3797 16.0641L102.63 9.11206L102.646 21.8081Z" fill="#374836"/>
<path d="M10.842 7.1999C10.842 6.04568 10.3862 4.93872 9.57465 4.12257C8.76313 3.30641 7.66244 2.8479 6.51477 2.8479C5.36711 2.8479 4.26645 3.30641 3.45493 4.12257C2.64341 4.93872 2.1875 6.04568 2.1875 7.1999V20.3599L5.75114 22.9279V29.1839H7.27841V22.9279L10.842 20.3599V7.1999ZM9.31477 14.5599L7.27841 16.6079V14.6879L9.31477 12.6399V14.5599ZM3.74659 12.6399L5.78295 14.6879V16.6079L3.74659 14.5599V12.6399ZM9.31477 10.4639L6.51477 13.2799L3.71477 10.3999V8.4799L6.51477 11.2959L9.31477 8.4799V10.4639ZM6.51477 4.3839C7.13057 4.38664 7.7285 4.59232 8.21697 4.96944C8.70545 5.34656 9.05752 5.87432 9.21932 6.4719L6.51477 9.1839L3.81023 6.4719C3.96609 5.86838 4.31564 5.33346 4.80465 4.95015C5.29366 4.56683 5.89479 4.35653 6.51477 4.35189V4.3839ZM3.71477 19.5839V16.7039L5.75114 18.7519V21.0399L3.71477 19.5839ZM7.27841 21.0479V18.7519L9.31477 16.7039V19.5759L7.27841 21.0479Z" fill="#374836"/>
</svg>
