<svg width="111" height="32" viewBox="0 0 111 32" fill="none" xmlns="http://www.w3.org/2000/svg">
<path d="M37.0762 20.3635V7.91846H35.0537V20.3635H37.0762Z" fill="#374836"/>
<path d="M38.314 16.2153C38.314 18.7578 40.0049 20.5644 42.5745 20.5644C45.1441 20.5644 46.835 18.7578 46.835 16.2153C46.835 13.6728 45.1441 11.8662 42.5745 11.8662C40.0049 11.8662 38.314 13.6728 38.314 16.2153ZM40.3531 16.2153C40.3531 14.7266 41.2317 13.6895 42.5745 13.6895C43.9173 13.6895 44.7959 14.7266 44.7959 16.2153C44.7959 17.6873 43.9173 18.7411 42.5745 18.7411C41.2317 18.7411 40.3531 17.6873 40.3531 16.2153Z" fill="#374836"/>
<path d="M47.5151 16.048C47.5151 18.4568 49.0569 20.1964 51.3612 20.1964C52.5548 20.1964 53.5827 19.7113 54.0966 18.9084V20.3135C54.0966 21.6684 53.2511 22.5717 51.842 22.5717C50.5821 22.5717 49.72 21.9528 49.604 20.8655H47.5649C47.8301 23.0233 49.4713 24.4284 51.7259 24.4284C54.3784 24.4284 56.0693 22.672 56.0693 19.9455V12.1004H54.2789L54.1629 13.2211C53.6655 12.3513 52.6377 11.8328 51.4275 11.8328C49.09 11.8328 47.5151 13.6226 47.5151 16.048ZM49.5708 15.9979C49.5708 14.6262 50.4329 13.6226 51.7094 13.6226C53.1019 13.6226 54.0303 14.6429 54.0303 15.9979C54.0303 17.3695 53.1019 18.4233 51.7094 18.4233C50.4494 18.4233 49.5708 17.3862 49.5708 15.9979Z" fill="#374836"/>
<path d="M57.0703 16.2153C57.0703 18.7578 58.7613 20.5644 61.3308 20.5644C63.9004 20.5644 65.5914 18.7578 65.5914 16.2153C65.5914 13.6728 63.9004 11.8662 61.3308 11.8662C58.7613 11.8662 57.0703 13.6728 57.0703 16.2153ZM59.1094 16.2153C59.1094 14.7266 59.988 13.6895 61.3308 13.6895C62.6736 13.6895 63.5523 14.7266 63.5523 16.2153C63.5523 17.6873 62.6736 18.7411 61.3308 18.7411C59.988 18.7411 59.1094 17.6873 59.1094 16.2153Z" fill="#374836"/>
<path d="M67.78 10.4108C68.4432 10.4108 68.9902 9.87553 68.9902 9.18972C68.9902 8.52062 68.4432 7.98535 67.78 7.98535C67.1003 7.98535 66.5864 8.52062 66.5864 9.18972C66.5864 9.87553 67.1003 10.4108 67.78 10.4108ZM66.7688 20.3635H68.7913V12.1003H66.7688V20.3635Z" fill="#374836"/>
<path d="M70.5635 24.1941H72.5364V19.2261C73.0503 20.0792 74.161 20.581 75.3878 20.581C77.8082 20.581 79.2504 18.7075 79.2173 16.1315C79.1676 13.5388 77.6921 11.8494 75.3712 11.8494C74.1279 11.8494 73.0006 12.4014 72.5032 13.3548L72.3872 12.1003H70.5635V24.1941ZM72.6193 16.2319C72.6193 14.7432 73.5145 13.7061 74.9236 13.7061C76.3327 13.7061 77.1782 14.7599 77.1782 16.2319C77.1782 17.7039 76.3327 18.741 74.9236 18.741C73.5145 18.741 72.6193 17.7206 72.6193 16.2319Z" fill="#374836"/>
<path d="M79.7305 17.8879C79.7968 19.5272 81.0567 20.581 83.0129 20.581C84.9359 20.581 86.2456 19.5439 86.2456 17.9381C86.2456 16.7505 85.5162 15.9475 84.1734 15.613L82.7311 15.2617C82.1177 15.0945 81.7032 14.877 81.7032 14.3417C81.7032 13.773 82.1508 13.3715 82.8803 13.3715C83.6429 13.3715 84.1402 13.8065 84.1402 14.5257H85.9803C85.914 12.8865 84.7038 11.8494 82.93 11.8494C81.1728 11.8494 79.8631 12.8865 79.8631 14.4588C79.8631 15.5294 80.4765 16.4159 82.0514 16.8341L83.4771 17.2021C84.0076 17.3526 84.3391 17.6035 84.3391 18.0719C84.3391 18.7243 83.7257 19.0254 82.9797 19.0254C82.0845 19.0254 81.5706 18.6072 81.5706 17.8879H79.7305Z" fill="#374836"/>
<path d="M90.441 20.5811C91.5518 20.5811 92.6127 20.0625 93.0935 19.2931L93.2261 20.3636H95.116V12.1003H93.0935V16.4327C93.0935 17.9214 92.5299 18.7578 91.2036 18.7578C90.1758 18.7578 89.4629 18.256 89.4629 16.5498V12.1003H87.4404V17.2691C87.4404 19.2429 88.5014 20.5811 90.441 20.5811Z" fill="#374836"/>
<path d="M98.9234 20.3635V15.613C98.9234 14.2748 99.7026 13.6392 100.664 13.6392C101.626 13.6392 102.256 14.2581 102.256 15.429V20.3635H104.228V15.6297C104.228 14.2748 104.991 13.6392 105.952 13.6392C106.931 13.6392 107.56 14.2581 107.56 15.429V20.3635H109.517V14.9606C109.517 13.0537 108.472 11.8494 106.483 11.8494C105.24 11.8494 104.261 12.4515 103.864 13.4217C103.416 12.4515 102.521 11.8494 101.161 11.8494C100.2 11.8494 99.3378 12.301 98.8571 13.037L98.7576 12.1003H96.9009V20.3635H98.9234Z" fill="#374836"/>
<path d="M94.0748 27.7484C94.3761 27.7484 94.6377 27.4924 94.6377 27.1884C94.6377 26.8764 94.3761 26.6204 94.0748 26.6204C93.7656 26.6204 93.5039 26.8764 93.5039 27.1884C93.5039 27.4924 93.7656 27.7484 94.0748 27.7484Z" fill="#374836"/>
<path d="M95.2192 25.6843C95.2192 26.9083 95.9645 27.7323 97.0507 27.7323C97.9863 27.7323 98.6999 27.1643 98.8505 26.3163H98.137C98.0022 26.7883 97.5899 27.0683 97.0983 27.0683C96.4006 27.0683 95.9566 26.5243 95.9566 25.6763C95.9566 24.8123 96.4244 24.2843 97.1142 24.2843C97.5899 24.2843 98.0022 24.5403 98.129 25.0443H98.8426C98.7157 24.1883 98.0497 23.6123 97.1221 23.6123C95.9962 23.6123 95.2192 24.4523 95.2192 25.6843Z" fill="#374836"/>
<path d="M99.1318 25.6764C99.1318 26.8524 99.9247 27.7324 101.114 27.7324C102.303 27.7324 103.096 26.8524 103.096 25.6764C103.096 24.5004 102.303 23.6204 101.114 23.6204C99.9247 23.6204 99.1318 24.5004 99.1318 25.6764ZM99.885 25.6764C99.885 24.8764 100.369 24.2924 101.114 24.2924C101.859 24.2924 102.343 24.8764 102.343 25.6764C102.343 26.4764 101.859 27.0604 101.114 27.0604C100.369 27.0604 99.885 26.4764 99.885 25.6764Z" fill="#374836"/>
<path d="M104.478 27.6444V25.2924C104.478 24.6764 104.858 24.2764 105.413 24.2764C105.944 24.2764 106.277 24.6204 106.277 25.2364V27.6444H107.007V25.3004C107.007 24.6764 107.38 24.2764 107.942 24.2764C108.466 24.2764 108.799 24.6204 108.799 25.2364V27.6444H109.52V25.0764C109.52 24.1724 108.997 23.6204 108.109 23.6204C107.506 23.6204 107.039 23.9164 106.848 24.3964C106.65 23.9164 106.214 23.6204 105.58 23.6204C105.096 23.6204 104.668 23.8444 104.454 24.2284L104.398 23.7324H103.732V27.6444H104.478Z" fill="#374836"/>
<path fill-rule="evenodd" clip-rule="evenodd" d="M1.44141 16.3166L1.4428 16.1709L1.44567 16.0251L1.45002 15.8792L1.45585 15.7334L1.46317 15.5876L1.47197 15.4418L1.48227 15.296L1.49404 15.1503L1.5073 15.0046L1.52205 14.859L1.53828 14.7135L1.55599 14.568L1.57519 14.4227L1.59588 14.2776L1.61804 14.1326L1.64169 13.9878L1.66682 13.843L1.69343 13.6986L1.72152 13.5543L1.75108 13.4102L1.78213 13.2664L1.81463 13.1228L1.84862 12.9795L1.88407 12.8365L1.921 12.6938L1.95938 12.5513L1.99923 12.4092L2.04054 12.2675L2.0833 12.1261L2.12752 11.9851L2.17318 11.8444L2.2203 11.7041L2.26886 11.5643L2.31885 11.4248L2.37029 11.2859L2.42315 11.1473L2.47745 11.0093L2.53316 10.8717L2.5903 10.7347L2.64885 10.5981L2.70881 10.462L2.77018 10.3265L2.83294 10.1916L2.89711 10.0572L2.96266 9.92339L3.0296 9.79023L3.09792 9.65764L3.16761 9.52564L3.23866 9.39437L3.31108 9.26368L3.38486 9.13364L3.45998 9.00434L3.53644 8.87568L3.61425 8.74775L3.69338 8.62055L3.77383 8.49408L3.85561 8.36841L3.93869 8.24339L4.02307 8.11925L4.10875 7.99583L4.19571 7.87321L4.28395 7.75146L4.37346 7.63045L4.46424 7.51037L4.55628 7.3911L4.64955 7.27266L4.74407 7.15513L4.83982 7.03849L4.93678 6.92275L5.03497 6.80792L5.13435 6.69402L5.23493 6.58107L5.3367 6.46906L5.43965 6.35802L5.54376 6.24796L5.64903 6.13888L5.75544 6.0308L5.863 5.92373L5.97168 5.81769L6.08149 5.71268L6.1924 5.60872L6.30441 5.50581L6.41751 5.40398L6.53169 5.30322L6.64693 5.20355L6.76323 5.10499L6.88057 5.00754L6.99895 4.91122L7.11836 4.81602L7.23878 4.72197L7.36016 4.62908L7.48262 4.53735L7.60601 4.44681L7.73035 4.35745L7.85562 4.26928L7.9819 4.18232L8.10905 4.09657L8.23713 4.01205L8.36615 3.92876L8.4961 3.84673L8.62685 3.76594L8.75854 3.68642L8.89102 3.60817L9.02436 3.5312L9.15857 3.45552L9.29358 3.38114L9.42937 3.30807L9.56596 3.23631L9.70334 3.16588L9.84151 3.09678L9.98041 3.02902L10.1201 2.9626L10.2604 2.89755L10.4016 2.83386L10.5433 2.77154L10.6858 2.7106L10.829 2.65106L10.9728 2.5929L11.1172 2.53613L11.2623 2.48079L11.408 2.42684L11.5543 2.37434L11.7012 2.32324L11.8487 2.27359L11.9966 2.22538L12.1452 2.1786L12.2943 2.13329L12.444 2.08943L12.594 2.04704L12.7447 2.00611L12.8957 1.96666L13.0472 1.92868L13.1992 1.8922L13.3516 1.8572L13.5044 1.8237L13.6576 1.7917L13.8112 1.76119L13.9652 1.7322L14.1195 1.70472L14.2742 1.67876L14.4291 1.65431L14.5844 1.63139L14.7399 1.61L14.8958 1.59014L15.0519 1.57181L15.2082 1.55501L15.3648 1.53977L15.5215 1.52606L15.6785 1.51389L15.8357 1.50328L16.6807 1.45459L16.7289 5.56271L16.7565 5.56239L16.8732 5.56223L16.9899 5.56322L17.1066 5.56536L17.2234 5.56867L17.3402 5.57314L17.457 5.57875L17.5739 5.58554L17.6907 5.59348L17.8075 5.60258L17.9243 5.61285L18.041 5.62428L18.1577 5.63688L18.2743 5.65063L18.3908 5.66555L18.5072 5.68163L18.6236 5.69887L18.7397 5.71727L18.8559 5.73684L18.9718 5.75756L19.0876 5.77944L19.2032 5.80248L19.3186 5.82668L19.4339 5.85204L19.549 5.87855L19.6638 5.9062L19.7785 5.93502L19.8929 5.96499L20.007 5.9961L20.1208 6.02836L20.2345 6.06177L20.3478 6.09631L20.4608 6.132L20.5736 6.16883L20.686 6.20679L20.7981 6.24588L20.9098 6.28611L21.0212 6.32746L21.1322 6.36994L21.2429 6.41353L21.3531 6.45825L21.463 6.50408L21.5724 6.55102L21.6815 6.59907L21.7901 6.64823L21.8982 6.69848L22.0059 6.74983L22.1131 6.80227L22.2199 6.8558L22.3261 6.91042L22.4319 6.96612L22.5371 7.02289L22.6418 7.08074L22.746 7.13964L22.8496 7.19962L22.9527 7.26064L23.0552 7.32274L23.1571 7.38586L23.2585 7.45001L23.3591 7.51524L23.4593 7.58143L23.5587 7.6487L23.6576 7.71699L23.7558 7.78623L23.8534 7.85655L23.9503 7.92783L24.0464 8.00012L24.142 8.07343L24.2368 8.14768L24.3309 8.22295L24.4242 8.2991L24.5169 8.37626L24.6088 8.45444L24.7 8.5335L24.7905 8.6135L24.8801 8.69444L24.9689 8.77634L25.057 8.85917L25.1443 8.94288L25.2308 9.02746L25.3164 9.11299L25.4013 9.19939L25.4852 9.28674L25.5684 9.37488L25.6507 9.4639L25.7321 9.55379L25.8126 9.64455L25.8923 9.73612L25.971 9.82855L26.0489 9.92179L26.1259 10.0158L26.2019 10.1107L26.277 10.2064L26.3512 10.3028L26.4244 10.4L26.4967 10.4981L26.568 10.5968L26.6383 10.6964L26.7077 10.7967L26.7761 10.8976L26.8435 10.9994L26.9099 11.1019L26.9752 11.2051L27.0395 11.3089L27.1029 11.4134L27.1652 11.5187L27.2264 11.6246L27.2866 11.7311L27.3458 11.8383L27.4039 11.9462L27.4609 12.0546L27.5168 12.1637L27.5717 12.2734L27.6254 12.3836L27.6781 12.4945L27.7297 12.6059L27.7802 12.7179L27.8296 12.8305L27.8778 12.9436L27.9249 13.0573L27.9708 13.1714L28.0157 13.2861L28.0594 13.4012L28.1019 13.5169L28.1432 13.633L28.1835 13.7496L28.2225 13.8667L28.2604 13.9842L28.2971 14.1021L28.3327 14.2204L28.367 14.3392L28.4001 14.4583L28.4321 14.5779L28.4628 14.6978L28.4923 14.818L28.5207 14.9387L28.5478 15.0596L28.5737 15.1809L28.5984 15.3024L28.6218 15.4244L28.644 15.5466L28.6651 15.6691L28.6848 15.7918L28.7034 15.9147L28.7207 16.038L28.7367 16.1614L28.7514 16.2851L28.765 16.409L28.7772 16.5331L28.7883 16.6573L28.7981 16.7817L28.8066 16.9063L28.8138 17.031L28.8198 17.1558L28.8245 17.2808L28.8279 17.4059L28.8302 17.531L28.831 17.6563L28.8307 17.7816L28.829 17.907L28.826 18.0324L28.8219 18.1578L28.8164 18.2832L28.8097 18.4087L28.8016 18.5342L28.7923 18.6596L28.7817 18.785L28.7698 18.9104L28.7567 19.0357L28.7422 19.1608L28.7265 19.286L28.7096 19.411L28.6913 19.536L28.6717 19.6608L28.6509 19.7854L28.6288 19.9099L28.6054 20.0343L28.5808 20.1585L28.5548 20.2825L28.5276 20.4063L28.4991 20.5299L28.4694 20.6533L28.4383 20.7764L28.406 20.8992L28.3725 21.0219L28.3377 21.1442L28.3017 21.2662L28.2643 21.388L28.2257 21.5094L28.1859 21.6306L28.1448 21.7513L28.1025 21.8718L28.0589 21.9918L28.0141 22.1115L27.968 22.2307L27.9207 22.3496L27.8722 22.4681L27.8225 22.5862L27.7715 22.7038L27.7194 22.8209L27.6659 22.9376L27.6113 23.0539L27.5555 23.1696L27.4984 23.2848L27.4403 23.3995L27.3808 23.5138L27.3203 23.6274L27.2584 23.7406L27.1955 23.8531L27.1313 23.9651L27.066 24.0765L26.9996 24.1872L26.932 24.2975L26.8631 24.407L26.7932 24.516L26.7222 24.6243L26.65 24.7319L26.5767 24.8389L26.5023 24.9452L26.4267 25.0508L26.35 25.1558L26.2723 25.26L26.1934 25.3635L26.1135 25.4662L26.0324 25.5682L25.9503 25.6694L25.8672 25.7699L25.7829 25.8696L25.6976 25.9685L25.6113 26.0666L25.5239 26.1639L25.4356 26.2604L25.3462 26.356L25.2557 26.4509L25.1643 26.5448L25.0719 26.6379L24.9785 26.7301L24.8841 26.8214L24.7887 26.9119L24.6924 27.0014L24.5951 27.0901L24.4969 27.1777L24.3978 27.2645L24.2977 27.3504L24.1967 27.4352L24.0948 27.5191L23.992 27.6021L23.8883 27.684L23.7837 27.765L23.6782 27.8449L23.5719 27.9239L23.4648 28.0019L23.3568 28.0787L23.2479 28.1547L23.1383 28.2295L23.0279 28.3032L22.9166 28.376L22.8046 28.4477L22.6918 28.5182L22.5782 28.5878L22.4638 28.6561L22.3487 28.7235L22.2329 28.7896L22.1163 28.8547L21.9991 28.9187L21.8811 28.9814L21.7625 29.0431L21.6431 29.1037L21.5231 29.163L21.4025 29.2212L21.2811 29.2783L21.1592 29.3342L21.0367 29.3888L20.9135 29.4423L20.7897 29.4946L20.6654 29.5457L20.5405 29.5956L20.415 29.6443L20.2889 29.6918L20.1623 29.7379L20.0352 29.783L19.9076 29.8267L19.7795 29.8692L19.6509 29.9104L19.5218 29.9504L19.3923 29.9892L19.2623 30.0267L19.1319 30.0629L19.001 30.0979L18.8697 30.1315L18.7381 30.1638L18.606 30.195L18.4736 30.2247L18.3408 30.2532L18.2077 30.2804L18.0742 30.3063L17.9404 30.3309L17.8063 30.3541L17.6719 30.376L17.5373 30.3967L17.4023 30.416L17.2671 30.4339L17.1317 30.4506L16.996 30.4659L16.8601 30.4798L16.724 30.4925L16.5878 30.5038L16.4513 30.5137L16.3148 30.5223L16.178 30.5296L16.0411 30.5355L15.9041 30.54L15.767 30.5432L15.6298 30.545L15.4925 30.5455L15.3552 30.5446L15.2178 30.5424L15.0804 30.5388L14.9429 30.5338L14.8054 30.5275L14.668 30.5198L14.5306 30.5107L14.3932 30.5003L14.2559 30.4886L14.1185 30.4754L13.9813 30.4609L13.8442 30.4451L13.7072 30.4278L13.5702 30.4092L13.4335 30.3892L13.2969 30.3679L13.1604 30.3452L13.0241 30.3212L12.888 30.2958L12.7521 30.269L12.6164 30.2409L12.4809 30.2114L12.3456 30.1806L12.2107 30.1484L12.076 30.1149L11.9416 30.08L11.8074 30.0438L11.6737 30.0062L11.5402 29.9673L11.407 29.9271L11.2742 29.8855L11.1418 29.8426L11.0098 29.7984L10.8781 29.7528L10.7468 29.7059L10.616 29.6577L10.4856 29.6082L10.3556 29.5574L10.2262 29.5052L10.0972 29.4518L9.96866 29.397L9.84065 29.341L9.71314 29.2837L9.58614 29.2251L9.45971 29.1651L9.33387 29.104L9.2086 29.0415L9.08383 28.9778L8.95971 28.9128L8.83624 28.8466L8.71328 28.7792L8.59103 28.7104L8.46944 28.6405L8.34849 28.5693L8.22819 28.4968L8.10861 28.4232L7.98969 28.3483L7.87148 28.2723L7.75406 28.195L7.6373 28.1166L7.52132 28.0369L7.40614 27.9561L7.29168 27.8742L7.17802 27.791L7.06516 27.7067L6.95311 27.6211L6.84189 27.5345L6.73149 27.4468L6.62194 27.3579L6.51326 27.2679L6.40543 27.1768L6.29849 27.0846L6.19244 26.9912L6.0873 26.8968L5.98308 26.8013L5.87978 26.7048L5.77742 26.6071L5.67601 26.5085L5.57557 26.4087L5.47608 26.308L5.37759 26.2062L5.28009 26.1034L5.18359 25.9996L5.08811 25.8948L4.99366 25.789L4.90024 25.6822L4.80786 25.5745L4.71655 25.4658L4.6263 25.3562L4.53713 25.2456L4.44904 25.1341L4.36206 25.0216L4.27618 24.9083L4.19142 24.7941L4.10778 24.679L4.02528 24.563L3.94392 24.4461L3.86371 24.3284L3.78467 24.2099L3.70681 24.0904L3.63012 23.9703L3.55462 23.8493L3.48032 23.7275L3.40724 23.6049L3.33536 23.4815L3.26472 23.3574L3.1953 23.2326L3.12712 23.107L3.0602 22.9806L2.99452 22.8535L2.93012 22.7258L2.86698 22.5974L2.80513 22.4683L2.74456 22.3384L2.68528 22.208L2.62731 22.0769L2.57064 21.9453L2.5153 21.8129L2.46127 21.68L2.40857 21.5465L2.35721 21.4124L2.30719 21.2778L2.25852 21.1426L2.2112 21.0069L2.16523 20.8707L2.12064 20.7339L2.07742 20.5966L2.03557 20.4589L1.99512 20.3207L1.95604 20.182L1.91836 20.0429L1.88208 19.9034L1.8472 19.7635L1.81372 19.6231L1.78167 19.4824L1.75103 19.3412L1.72181 19.1998L1.69402 19.0579L1.66765 18.9158L1.64272 18.7734L1.61923 18.6306L1.59717 18.4875L1.57657 18.3442L1.55741 18.2006L1.53971 18.0567L1.52345 17.9126L1.50866 17.7683L1.49532 17.6239L1.48345 17.4792L1.47304 17.3343L1.4641 17.1893L1.45664 17.0441L1.45064 16.8988L1.44611 16.7534L1.44306 16.6079L1.4415 16.4623L1.44141 16.3166ZM15.4087 5.64876L15.3759 2.84862L15.3447 2.85166L15.2014 2.86705L15.0584 2.88383L14.9156 2.90204L14.7733 2.92161L14.6312 2.9426L14.4892 2.96499L14.3476 2.98876L14.2062 3.01394L14.0655 3.04044L13.9246 3.06842L13.7847 3.09765L13.6446 3.12836L13.5052 3.16038L13.3659 3.19382L13.2273 3.22854L13.0891 3.26466L12.9512 3.30212L12.8137 3.34093L12.6769 3.38105L12.5403 3.42255L12.4045 3.46533L12.269 3.50948L12.1342 3.55484L11.9996 3.60164L11.8657 3.6497L11.7325 3.69902L11.5997 3.74969L11.4676 3.80159L11.3362 3.85475L11.2052 3.90927L11.0748 3.96503L10.945 4.02207L10.816 4.0803L10.6876 4.1398L10.56 4.2005L10.4328 4.26253L10.3065 4.3257L10.1809 4.3901L10.0559 4.45572L9.93175 4.52255L9.80843 4.59052L9.68561 4.65975L9.56358 4.73018L9.44263 4.80161L9.32205 4.87444L9.20261 4.94823L9.08397 5.02318L8.96591 5.09935L8.84878 5.17664L8.73252 5.25506L8.61734 5.33439L8.50259 5.41514L8.389 5.49674L8.27627 5.57948L8.16433 5.66335L8.0534 5.74821L7.94348 5.8341L7.83421 5.92119L7.72617 6.00911L7.61892 6.09818L7.51267 6.18823L7.40737 6.27932L7.30314 6.37128L7.1997 6.46441L7.09743 6.55836L6.99604 6.6534L6.89582 6.74924L6.79652 6.84612L6.69832 6.94388L6.60113 7.0426L6.50487 7.14234L6.40988 7.24276L6.31596 7.34404L6.22287 7.44652L6.13107 7.54964L6.0404 7.6535L5.95065 7.75844L5.86221 7.86404L5.77475 7.97059L5.68847 8.07786L5.60332 8.18601L5.51927 8.29488L5.43647 8.40448L5.35475 8.51488L5.27415 8.62615L5.19485 8.73794L5.11661 8.85066L5.03962 8.96397L4.96381 9.07801L4.88915 9.19277L4.81574 9.30819L4.74354 9.42419L4.67255 9.54092L4.60283 9.65823L4.53426 9.77626L4.46691 9.89495L4.4009 10.0141L4.33606 10.1339L4.27247 10.2543L4.21016 10.3752L4.14909 10.4968L4.08932 10.6187L4.0308 10.7413L3.97357 10.8643L3.91759 10.988L3.86293 11.112L3.80951 11.2366L3.7574 11.3616L3.70662 11.487L3.65711 11.6128L3.6089 11.7392L3.56201 11.8659L3.51642 11.993L3.47218 12.1204L3.42921 12.2483L3.38758 12.3766L3.34728 12.5051L3.30832 12.6339L3.27065 12.7632L3.23434 12.8927L3.19937 13.0225L3.16571 13.1526L3.1334 13.283L3.10243 13.4135L3.07281 13.5443L3.04453 13.6754L3.01759 13.8067L2.992 13.9381L2.96776 14.0697L2.94487 14.2015L2.92332 14.3335L2.90313 14.4656L2.88429 14.5978L2.8668 14.7302L2.85067 14.8626L2.83588 14.9951L2.82246 15.1278L2.81038 15.2604L2.79966 15.3931L2.79029 15.5259L2.78227 15.6587L2.7756 15.7914L2.77029 15.9242L2.76633 16.0569L2.76372 16.1896L2.76245 16.3223L2.76254 16.455L2.76396 16.5875L2.76674 16.72L2.77085 16.8523L2.77631 16.9846L2.78312 17.1167L2.79125 17.2486L2.80072 17.3805L2.81152 17.5121L2.82366 17.6436L2.83712 17.775L2.85191 17.906L2.86802 18.0369L2.88544 18.1675L2.90419 18.2979L2.92426 18.4281L2.94562 18.5579L2.96831 18.6875L2.99229 18.8168L3.01756 18.9458L3.04414 19.0745L3.072 19.2028L3.10116 19.3308L3.1316 19.4584L3.16331 19.5857L3.19631 19.7126L3.23056 19.839L3.26609 19.9651L3.30288 20.0908L3.34093 20.216L3.38022 20.3408L3.42075 20.4651L3.46253 20.589L3.50554 20.7123L3.54979 20.8352L3.59524 20.9576L3.64194 21.0795L3.68982 21.2008L3.73891 21.3216L3.78921 21.4418L3.8407 21.5614L3.89338 21.6806L3.94724 21.7991L4.00227 21.917L4.05846 22.0343L4.11582 22.151L4.17433 22.267L4.23399 22.3824L4.29478 22.4972L4.35671 22.6113L4.41975 22.7247L4.48392 22.8374L4.54919 22.9495L4.61557 23.0608L4.68302 23.1714L4.75159 23.2813L4.82121 23.3904L4.89192 23.4988L4.96369 23.6064L5.03649 23.7133L5.11035 23.8194L5.18526 23.9247L5.26117 24.0292L5.33813 24.1329L5.41606 24.2358L5.49503 24.3378L5.57495 24.439L5.65588 24.5393L5.73781 24.6389L5.82064 24.7375L5.90447 24.8352L5.98923 24.9321L6.07495 25.0281L6.16157 25.1232L6.2491 25.2174L6.33755 25.3106L6.42689 25.403L6.51715 25.4944L6.60825 25.5848L6.70025 25.6743L6.79308 25.7628L6.88676 25.8504L6.9813 25.9371L7.07665 26.0227L7.17277 26.1072L7.26977 26.1909L7.36758 26.2735L7.46604 26.3551L7.56543 26.4358L7.66548 26.5152L7.76632 26.5938L7.86787 26.6713L7.97022 26.7478L8.07322 26.8231L8.17694 26.8974L8.28131 26.9707L8.38647 27.0429L8.49221 27.1139L8.59874 27.184L8.70578 27.2529L8.81354 27.3207L8.92194 27.3875L9.03085 27.4531L9.14048 27.5176L9.25062 27.5809L9.3614 27.6432L9.47269 27.7043L9.58463 27.7643L9.697 27.8231L9.80994 27.8808L9.92346 27.9374L10.0375 27.9928L10.152 28.047L10.2669 28.1001L10.3823 28.152L10.4983 28.2027L10.6146 28.2523L10.7315 28.3007L10.8487 28.3479L10.9663 28.3939L11.0844 28.4387L11.2027 28.4824L11.3215 28.5248L11.4407 28.566L11.5602 28.6061L11.6801 28.6449L11.8002 28.6825L11.9207 28.719L12.0415 28.7542L12.1626 28.7881L12.2839 28.8209L12.4055 28.8525L12.5274 28.8828L12.6495 28.9119L12.7718 28.9398L12.8944 28.9664L13.017 28.9919L13.14 29.0161L13.2631 29.0391L13.3864 29.0608L13.5098 29.0814L13.6333 29.1006L13.757 29.1187L13.8808 29.1355L14.0047 29.1511L14.1286 29.1654L14.2527 29.1785L14.3768 29.1904L14.501 29.2011L14.6252 29.2105L14.7494 29.2187L14.8736 29.2256L14.9978 29.2313L15.122 29.2358L15.2462 29.2391L15.3704 29.2411L15.4944 29.2419L15.6185 29.2414L15.7425 29.2398L15.8663 29.2369L15.99 29.2328L16.1137 29.2275L16.2373 29.2209L16.3606 29.2131L16.4839 29.2042L16.607 29.194L16.7299 29.1826L16.8525 29.1699L16.9751 29.1561L17.0973 29.1411L17.2194 29.1249L17.3412 29.1075L17.4628 29.0888L17.5841 29.0691L17.7052 29.048L17.826 29.0259L17.9465 29.0025L18.0666 28.978L18.1865 28.9523L18.306 28.9254L18.4251 28.8974L18.544 28.8681L18.6624 28.8378L18.7805 28.8062L18.8981 28.7736L19.0154 28.7398L19.1323 28.7048L19.2488 28.6687L19.3647 28.6315L19.4803 28.5931L19.5955 28.5537L19.71 28.5131L19.8242 28.4714L19.9379 28.4286L20.0511 28.3847L20.1637 28.3398L20.2758 28.2937L20.3874 28.2465L20.4984 28.1983L20.6089 28.149L20.7188 28.0987L20.8282 28.0472L20.937 27.9947L21.0451 27.9413L21.1527 27.8867L21.2596 27.8311L21.3659 27.7745L21.4716 27.7168L21.5766 27.6582L21.681 27.5986L21.7846 27.538L21.8878 27.4763L21.99 27.4138L22.0917 27.3502L22.1926 27.2856L22.2928 27.2201L22.3923 27.1536L22.4911 27.0862L22.589 27.0179L22.6862 26.9486L22.7827 26.8784L22.8785 26.8074L22.9735 26.7353L23.0675 26.6625L23.161 26.5886L23.2535 26.514L23.3452 26.4385L23.4362 26.3621L23.5263 26.2848L23.6155 26.2067L23.7039 26.1278L23.7914 26.048L23.8781 25.9675L23.964 25.8861L24.0488 25.804L24.1329 25.7209L24.2161 25.6371L24.2983 25.5526L24.3797 25.4673L24.4601 25.3814L24.5395 25.2947L24.6182 25.207L24.6958 25.1188L24.7725 25.0298L24.8482 24.9402L24.923 24.8498L24.9968 24.7588L25.0696 24.6671L25.1416 24.5747L25.2124 24.4817L25.2824 24.388L25.3512 24.2937L25.4192 24.1987L25.4862 24.1031L25.552 24.0071L25.6169 23.9103L25.6807 23.8131L25.7436 23.7151L25.8055 23.6166L25.8662 23.5176L25.9258 23.4182L25.9846 23.3179L26.0421 23.2174L26.0987 23.1163L26.1543 23.0146L26.2086 22.9126L26.262 22.8099L26.3143 22.7068L26.3654 22.6036L26.4156 22.4995L26.4647 22.3951L26.5126 22.2904L26.5595 22.1852L26.6052 22.0796L26.6499 21.9737L26.6935 21.8672L26.7359 21.7605L26.7772 21.6536L26.8174 21.546L26.8565 21.4384L26.8946 21.3302L26.9315 21.2219L26.9672 21.1131L27.0018 21.0044L27.0353 20.8949L27.0676 20.7855L27.0988 20.6758L27.129 20.5659L27.1579 20.4555L27.1857 20.3452L27.2124 20.2345L27.2379 20.1236L27.2624 20.0126L27.2857 19.9014L27.3077 19.7902L27.3287 19.6784L27.3485 19.567L27.3672 19.4552L27.3847 19.3432L27.4011 19.2313L27.4163 19.1192L27.4304 19.0072L27.4434 18.8947L27.4551 18.7826L27.4658 18.6702L27.4752 18.5579L27.4836 18.4454L27.4908 18.3332L27.4969 18.2207L27.5018 18.1081L27.5055 17.9958L27.5082 17.8838L27.5096 17.7712L27.51 17.659L27.5092 17.5468L27.5072 17.4347L27.5041 17.3227L27.4999 17.211L27.4945 17.099L27.4881 16.9874L27.4804 16.8758L27.4717 16.7646L27.4618 16.6532L27.4509 16.5423L27.4388 16.4313L27.4255 16.3207L27.4112 16.2102L27.3957 16.1L27.3791 15.9897L27.3614 15.88L27.3427 15.7706L27.3228 15.6611L27.3017 15.552L27.2797 15.4434L27.2565 15.3347L27.2323 15.2267L27.2069 15.1187L27.1806 15.0113L27.153 14.9038L27.1244 14.7971L27.0948 14.6906L27.0641 14.5843L27.0324 14.4786L26.9996 14.3733L26.9656 14.268L26.9308 14.1636L26.8948 14.0592L26.8579 13.9555L26.8198 13.852L26.7808 13.7493L26.7407 13.6467L26.6996 13.5446L26.6576 13.4432L26.6145 13.3423L26.5703 13.2415L26.5254 13.1416L26.4792 13.0419L26.4322 12.943L26.3842 12.8446L26.3351 12.7464L26.2852 12.6491L26.2343 12.5523L26.1823 12.4558L26.1297 12.3603L26.0758 12.2651L26.0212 12.1706L25.9655 12.0766L25.9091 11.9835L25.8515 11.8906L25.7933 11.7986L25.734 11.707L25.6739 11.6163L25.613 11.5263L25.551 11.4367L25.4882 11.3479L25.4246 11.2598L25.3601 11.1724L25.2948 11.0856L25.2286 10.9996L25.1617 10.9142L25.0939 10.8296L25.0252 10.7458L24.9557 10.6626L24.8855 10.5802L24.8145 10.4985L24.7428 10.4176L24.6702 10.3375L24.5967 10.258L24.5228 10.1796L24.4477 10.1016L24.3722 10.0248L24.2959 9.94848L24.2189 9.87314L24.1409 9.79837L24.0626 9.72477L23.9833 9.65175L23.9034 9.57961L23.823 9.50841L23.7419 9.43801L23.6598 9.36826L23.5773 9.29954L23.4942 9.23168L23.4103 9.1647L23.3259 9.09852L23.2409 9.03343L23.1551 8.96884L23.069 8.9055L22.9821 8.84295L22.8946 8.78121L22.8067 8.72048L22.7179 8.66048L22.6291 8.60172L22.5393 8.54361L22.4492 8.48652L22.3584 8.4303L22.2672 8.37503L22.1756 8.32077L22.0835 8.26754L21.9906 8.21495L21.8977 8.16361L21.804 8.11306L21.7099 8.06354L21.6155 8.01503L21.5205 7.96739L21.4252 7.9207L21.3294 7.8751L21.2332 7.83037L21.1368 7.78674L21.0398 7.74397L20.9394 7.70092L20.845 7.66157L20.7468 7.62172L20.6487 7.5831L20.5498 7.54521L20.4509 7.50855L20.3516 7.47277L20.252 7.43808L20.152 7.40426L20.052 7.37161L19.9515 7.3399L19.8508 7.30921L19.7501 7.27961L19.6489 7.25092L19.5473 7.22323L19.4459 7.19666L19.3443 7.17111L19.242 7.14649L19.1401 7.123L19.0376 7.10046L18.9352 7.079L18.8324 7.05852L18.7298 7.03912L18.6269 7.02072L18.524 7.00339L18.4207 6.98703L18.3176 6.97175L18.2143 6.95748L18.1109 6.94423L18.0074 6.93203L17.904 6.92087L17.8005 6.91074L17.6969 6.90163L17.5933 6.89355L17.4896 6.8865L17.3861 6.88049L17.2826 6.87551L17.1788 6.87154L17.0755 6.86862L16.972 6.86671L16.8685 6.86584L16.765 6.86599L16.7442 6.86623L16.7768 9.64601L16.8356 9.64572L16.9112 9.64615L16.9868 9.64732L17.0625 9.64928L17.1382 9.65197L17.214 9.65546L17.2898 9.65968L17.3656 9.66463L17.4414 9.67037L17.5172 9.67684L17.5931 9.68412L17.6688 9.69212L17.7446 9.70092L17.8204 9.71044L17.8961 9.7207L17.9718 9.73183L18.0474 9.74361L18.1229 9.75619L18.1984 9.76957L18.2738 9.78368L18.3492 9.79859L18.4244 9.81423L18.4996 9.83059L18.5746 9.84775L18.6495 9.86572L18.7243 9.88441L18.7989 9.90383L18.8735 9.92404L18.9478 9.94499L19.0221 9.96674L19.0962 9.98921L19.1701 10.0124L19.2437 10.0364L19.3172 10.0611L19.3906 10.0867L19.4637 10.1129L19.5366 10.1399L19.6093 10.1676L19.6818 10.1961L19.754 10.2254L19.826 10.2553L19.8978 10.2861L19.9693 10.3175L20.0405 10.3497L20.1114 10.3826L20.182 10.4163L20.2524 10.4507L20.3225 10.4858L20.3923 10.5216L20.4618 10.5582L20.5309 10.5955L20.5997 10.6335L20.6682 10.6722L20.7363 10.7116L20.8041 10.7518L20.8716 10.7926L20.9386 10.8342L21.0053 10.8764L21.0716 10.9194L21.1376 10.963L21.2031 11.0073L21.2682 11.0523L21.333 11.0981L21.3973 11.1444L21.4611 11.1915L21.5245 11.2392L21.5876 11.2876L21.6501 11.3367L21.7122 11.3864L21.7739 11.4368L21.8351 11.4878L21.8958 11.5395L21.956 11.5918L22.0158 11.6448L22.075 11.6984L22.1338 11.7526L22.1919 11.8075L22.2497 11.863L22.3068 11.919L22.3635 11.9758L22.4196 12.0331L22.4752 12.091L22.5303 12.1495L22.5847 12.2086L22.6386 12.2683L22.6919 12.3286L22.7447 12.3894L22.7969 12.4509L22.8485 12.5128L22.8995 12.5754L22.9499 12.6385L22.9997 12.7022L23.0489 12.7664L23.0974 12.8311L23.1454 12.8964L23.1926 12.9622L23.2394 13.0285L23.2853 13.0953L23.3308 13.1627L23.3754 13.2305L23.4195 13.2988L23.4629 13.3677L23.5056 13.437L23.5477 13.5067L23.5891 13.577L23.6297 13.6478L23.6697 13.7189L23.709 13.7905L23.7476 13.8626L23.7855 13.9351L23.8227 14.008L23.8591 14.0814L23.8948 14.1552L23.9299 14.2294L23.9641 14.304L23.9976 14.379L24.0304 14.4544L24.0625 14.5302L24.0938 14.6063L24.1243 14.6828L24.1541 14.7597L24.1831 14.8368L24.2113 14.9144L24.2388 14.9923L24.2655 15.0706L24.2915 15.1491L24.3166 15.228L24.3409 15.3072L24.3645 15.3867L24.3873 15.4664L24.4093 15.5465L24.4304 15.6269L24.4508 15.7075L24.4703 15.7883L24.489 15.8694L24.507 15.9508L24.5241 16.0324L24.5404 16.1142L24.5558 16.1963L24.5704 16.2786L24.5843 16.3611L24.5972 16.4437L24.6093 16.5266L24.6207 16.6096L24.6311 16.6928L24.6408 16.7762L24.6495 16.8598L24.6574 16.9434L24.6646 17.0272L24.6708 17.1112L24.6762 17.1952L24.6806 17.2794L24.6843 17.3637L24.6871 17.4481L24.6891 17.5326L24.6901 17.6171L24.6904 17.7018L24.6897 17.7864L24.6882 17.8712L24.6858 17.956L24.6826 18.0408L24.6785 18.1256L24.6735 18.2105L24.6677 18.2955L24.6609 18.3803L24.6533 18.4652L24.6449 18.5501L24.6355 18.6349L24.6253 18.7198L24.6142 18.8045L24.6023 18.8892L24.5894 18.9739L24.5758 19.0584L24.5612 19.143L24.5457 19.2274L24.5294 19.3118L24.5122 19.396L24.4941 19.4801L24.4752 19.5641L24.4554 19.648L24.4347 19.7317L24.4131 19.8153L24.3907 19.8987L24.3674 19.982L24.3433 20.0651L24.3183 20.148L24.2924 20.2307L24.2656 20.3133L24.238 20.3955L24.2095 20.4776L24.1803 20.5595L24.1501 20.6411L24.119 20.7225L24.0871 20.8037L24.0544 20.8846L24.0208 20.9652L23.9864 21.0455L23.9511 21.1256L23.915 21.2054L23.878 21.2848L23.8403 21.3639L23.8016 21.4427L23.7621 21.5212L23.7218 21.5994L23.6808 21.6771L23.6388 21.7546L23.5961 21.8317L23.5525 21.9084L23.5081 21.9847L23.4629 22.0607L23.417 22.1362L23.3702 22.2114L23.3225 22.2861L23.2742 22.3604L23.2249 22.4342L23.175 22.5077L23.1242 22.5807L23.0727 22.6532L23.0204 22.7253L22.9673 22.7969L22.9135 22.868L22.8589 22.9387L22.8035 23.0088L22.7474 23.0784L22.6905 23.1475L22.6329 23.2162L22.5745 23.2843L22.5154 23.3518L22.4556 23.4188L22.395 23.4853L22.3338 23.5512L22.2719 23.6166L22.2091 23.6813L22.1458 23.7455L22.0816 23.8091L22.0169 23.8721L21.9514 23.9345L21.8853 23.9963L21.8185 24.0575L21.7509 24.118L21.6828 24.1779L21.614 24.2373L21.5446 24.2959L21.4745 24.3539L21.4037 24.4112L21.3323 24.4679L21.2603 24.5239L21.1877 24.5792L21.1145 24.6339L21.0406 24.6878L20.9662 24.7411L20.8912 24.7936L20.8156 24.8455L20.7393 24.8966L20.6626 24.947L20.5852 24.9967L20.5074 25.0456L20.4289 25.0938L20.35 25.1413L20.2704 25.188L20.1904 25.2339L20.1098 25.279L20.0287 25.3235L19.9471 25.3671L19.865 25.4099L19.7824 25.452L19.6994 25.4932L19.6159 25.5337L19.5318 25.5734L19.4473 25.6122L19.3624 25.6502L19.2771 25.6875L19.1912 25.7238L19.105 25.7594L19.0184 25.7942L18.9313 25.828L18.8439 25.8611L18.756 25.8934L18.6678 25.9247L18.5792 25.9552L18.4902 25.9848L18.4008 26.0136L18.3112 26.0415L18.2211 26.0686L18.1308 26.0947L18.0401 26.12L17.9491 26.1443L17.8577 26.1678L17.7661 26.1904L17.6742 26.2122L17.582 26.233L17.4896 26.2529L17.3968 26.2719L17.3038 26.29L17.2106 26.3072L17.1171 26.3235L17.0234 26.3389L16.9296 26.3533L16.8354 26.3668L16.7411 26.3794L16.6466 26.3911L16.552 26.4018L16.4571 26.4116L16.3621 26.4205L16.267 26.4284L16.1717 26.4354L16.0763 26.4414L15.9807 26.4465L15.885 26.4507L15.7892 26.4539L15.6934 26.4561L15.5974 26.4574L15.5014 26.4578L15.4053 26.4572L15.3092 26.4556L15.213 26.4531L15.1168 26.4496L15.0205 26.4452L14.9242 26.4398L14.828 26.4335L14.7317 26.4262L14.6355 26.4179L14.5393 26.4087L14.443 26.3985L14.3469 26.3874L14.2508 26.3753L14.1547 26.3622L14.0588 26.3482L13.9629 26.3332L13.8671 26.3173L13.7714 26.3003L13.6758 26.2825L13.5804 26.2637L13.4851 26.2438L13.3899 26.2231L13.2949 26.2014L13.2001 26.1787L13.1053 26.1551L13.0108 26.1305L12.9165 26.105L12.8224 26.0785L12.7285 26.0511L12.6348 26.0227L12.5413 25.9934L12.4481 25.9631L12.3552 25.9319L12.2625 25.8998L12.1701 25.8667L12.0779 25.8326L11.986 25.7976L11.8945 25.7617L11.8033 25.7249L11.7123 25.6871L11.6217 25.6484L11.5315 25.6088L11.4416 25.5683L11.352 25.5268L11.2628 25.4845L11.174 25.4412L11.0856 25.397L10.9975 25.3519L10.9099 25.3059L10.8227 25.259L10.7359 25.2112L10.6496 25.1626L10.5637 25.113L10.4782 25.0626L10.3932 25.0112L10.3086 24.959L10.2246 24.906L10.1411 24.852L10.058 24.7973L9.9755 24.7416L9.89348 24.6851L9.81196 24.6278L9.73102 24.5696L9.65058 24.5105L9.57071 24.4507L9.49136 24.3899L9.41265 24.3284L9.33452 24.2661L9.25696 24.2029L9.17998 24.139L9.10358 24.0742L9.02782 24.0086L8.95272 23.9422L8.87819 23.8751L8.80431 23.8072L8.73115 23.7385L8.65857 23.6691L8.58664 23.5988L8.51542 23.5278L8.44493 23.4561L8.37509 23.3836L8.30589 23.3104L8.23742 23.2365L8.16974 23.1619L8.1027 23.0864L8.03639 23.0104L7.97087 22.9336L7.906 22.8561L7.842 22.7779L7.77864 22.699L7.71615 22.6195L7.65438 22.5393L7.5934 22.4584L7.53322 22.3769L7.47375 22.2948L7.41515 22.212L7.35742 22.1286L7.3004 22.0445L7.24426 21.9598L7.18894 21.8746L7.13446 21.7887L7.08081 21.7022L7.02802 21.6152L6.97608 21.5275L6.92501 21.4394L6.8748 21.3506L6.82546 21.2614L6.77701 21.1715L6.72945 21.0811L6.68277 20.9902L6.63699 20.8988L6.59212 20.8069L6.54816 20.7144L6.50512 20.6216L6.463 20.5281L6.4218 20.4343L6.38153 20.34L6.34221 20.2451L6.30382 20.1499L6.26639 20.0543L6.2299 19.9582L6.19438 19.8616L6.15981 19.7648L6.12621 19.6674L6.09359 19.5697L6.06194 19.4716L6.03127 19.3731L6.00159 19.2744L5.9729 19.1752L5.9452 19.0757L5.91849 18.9758L5.8928 18.8756L5.8681 18.7752L5.84441 18.6744L5.82174 18.5733L5.80008 18.4719L5.77945 18.3703L5.75983 18.2684L5.74124 18.1662L5.72369 18.0638L5.70717 17.9612L5.69168 17.8584L5.67722 17.7553L5.66382 17.652L5.65146 17.5486L5.64014 17.4449L5.62987 17.3411L5.62065 17.2371L5.61249 17.133L5.60538 17.0288L5.59933 16.9243L5.59434 16.8198L5.59041 16.7152L5.58755 16.6105L5.58575 16.5057L5.58501 16.4008L5.58535 16.2958L5.58675 16.1908L5.58923 16.0858L5.59277 15.9807L5.59739 15.8755L5.60308 15.7704L5.60985 15.6653L5.61769 15.5602L5.6266 15.455L5.63659 15.35L5.64766 15.2449L5.6598 15.14L5.67301 15.035L5.68731 14.9302L5.70267 14.8254L5.71912 14.7207L5.73664 14.6161L5.75523 14.5117L5.7749 14.4073L5.79565 14.3031L5.81746 14.1991L5.84035 14.0952L5.86431 13.9915L5.88933 13.8879L5.91543 13.7846L5.94259 13.6814L5.97082 13.5784L6.00011 13.4758L6.03047 13.3733L6.06188 13.271L6.09436 13.169L6.12789 13.0673L6.16247 12.9659L6.19812 12.8647L6.2348 12.7638L6.27254 12.6632L6.31132 12.563L6.35114 12.4631L6.392 12.3635L6.4339 12.2643L6.47683 12.1654L6.5208 12.067L6.56578 11.9688L6.61179 11.8711L6.65882 11.7738L6.70688 11.6769L6.75594 11.5804L6.80602 11.4844L6.85709 11.3888L6.90917 11.2936L6.96225 11.199L7.01632 11.1047L7.07138 11.011L7.12742 10.9178L7.18445 10.8251L7.24245 10.7328L7.30141 10.6411L7.36138 10.55L7.42222 10.4594L7.48413 10.3694L7.54691 10.2798L7.61063 10.1909L7.67535 10.1026L7.74094 10.0148L7.80754 9.92768L7.87501 9.84114L7.94341 9.75524L8.01268 9.67001L8.08288 9.58535L8.15402 9.50135L8.22603 9.41801L8.2989 9.33539L8.37271 9.25343L8.44731 9.17212L8.52285 9.09154L8.59925 9.01161L8.67644 8.93248L8.7545 8.85401L8.83343 8.77626L8.91322 8.69932L8.9938 8.62303L9.07518 8.54761L9.15742 8.47284L9.24045 8.39895L9.32421 8.32579L9.40883 8.25343L9.49424 8.18186L9.58037 8.1111L9.6673 8.04114L9.75502 7.97204L9.84346 7.90375L9.93262 7.83634L10.0226 7.76972L10.1132 7.70397L10.2045 7.6391L10.2966 7.5751L10.3894 7.51197L10.4828 7.44979L10.577 7.38841L10.6718 7.32797L10.7673 7.26844L10.8634 7.20981L10.9602 7.15211L11.0576 7.09534L11.1557 7.0395L11.2544 6.9846L11.3536 6.93066L11.4535 6.87767L11.554 6.82564L11.6551 6.77458L11.7567 6.72449L11.8589 6.67538L11.9617 6.62727L12.065 6.58014L12.1688 6.53401L12.2732 6.48889L12.3781 6.44478L12.4835 6.40168L12.5893 6.35961L12.6957 6.31856L12.8025 6.27855L12.9098 6.23957L13.0176 6.20164L13.1257 6.16475L13.2344 6.12892L13.3433 6.09415L13.4528 6.06043L13.5627 6.02778L13.673 5.99621L13.7835 5.96571L13.8945 5.93629L14.0059 5.90796L14.1176 5.88071L14.2296 5.85457L14.342 5.82951L14.4546 5.80555L14.5676 5.7827L14.6809 5.76096L14.7944 5.74033L14.9082 5.72081L15.0223 5.70241L15.1366 5.68513L15.2512 5.66898L15.3659 5.65394L15.4087 5.64876ZM15.4572 9.77175L15.4242 6.96142L15.3301 6.97468L15.229 6.98998L15.1278 7.00629L15.0272 7.02354L14.9265 7.04183L14.8263 7.06107L14.7264 7.0813L14.6268 7.10247L14.5274 7.12464L14.4282 7.1478L14.3293 7.17191L14.2308 7.19697L14.1325 7.22303L14.038 7.24906L13.9373 7.27794L13.84 7.30681L13.7432 7.33663L13.6469 7.36732L13.5509 7.39903L13.4551 7.43168L13.3599 7.46521L13.2651 7.49961L13.1706 7.53503L13.0767 7.57124L12.983 7.60848L12.8901 7.64652L12.7972 7.68557L12.705 7.72543L12.6133 7.76615L12.5222 7.80775L12.4313 7.8503L12.3409 7.89372L12.2513 7.93786L12.1618 7.98303L12.0733 8.02892L11.985 8.07583L11.8975 8.12332L11.8101 8.17197L11.7236 8.22114L11.6377 8.27124L11.5522 8.32223L11.4674 8.37394L11.383 8.42659L11.2994 8.47983L11.2163 8.53401L11.1339 8.58892L11.0521 8.64455L10.9708 8.70106L10.8901 8.75837L10.8103 8.81619L10.731 8.87503L10.6522 8.93452L10.5743 8.99474L10.497 9.05561L10.4202 9.11735L10.3443 9.17968L10.2691 9.24274L10.1944 9.30666L10.1207 9.37103L10.0474 9.43626L9.97493 9.50215L9.90321 9.56863L9.83229 9.63575L9.76187 9.70368L9.69245 9.77204L9.62369 9.84114L9.55558 9.91095L9.48833 9.98128L9.4218 10.0523L9.35607 10.1239L9.29112 10.196L9.2269 10.2688L9.1634 10.3423L9.10098 10.4161L9.03914 10.4907L8.97809 10.5658L8.9179 10.6414L8.85858 10.7174L8.79991 10.7942L8.74218 10.8714L8.68524 10.9491L8.62916 11.0274L8.57388 11.1062L8.51953 11.1853L8.46598 11.265L8.41322 11.3452L8.36132 11.4259L8.31036 11.5069L8.26027 11.5884L8.21097 11.6705L8.16253 11.7528L8.11503 11.8357L8.06832 11.919L8.02263 12.0024L7.97772 12.0865L7.93361 12.171L7.89058 12.2557L7.84834 12.3409L7.80704 12.4264L7.7666 12.5122L7.72711 12.5984L7.68847 12.6849L7.65078 12.7718L7.61394 12.8589L7.57812 12.9463L7.54316 13.034L7.50907 13.1221L7.47591 13.2104L7.44377 13.2989L7.41241 13.3878L7.38214 13.4767L7.35266 13.566L7.32419 13.6555L7.29658 13.7453L7.26999 13.8352L7.24426 13.9253L7.21953 14.0155L7.19568 14.1061L7.17279 14.1967L7.15084 14.2875L7.12984 14.3785L7.10977 14.4696L7.09063 14.5608L7.07246 14.6522L7.05521 14.7436L7.03891 14.8352L7.02356 14.9269L7.00914 15.0187L6.99568 15.1104L6.98315 15.2023L6.97157 15.2942L6.96093 15.3862L6.95124 15.4782L6.94249 15.5703L6.93468 15.6624L6.92782 15.7544L6.92189 15.8465L6.91691 15.9386L6.91286 16.0306L6.90976 16.1226L6.90759 16.2145L6.90637 16.3064L6.90607 16.3984L6.90672 16.4902L6.90829 16.5819L6.9108 16.6735L6.91423 16.765L6.9186 16.8565L6.92389 16.9478L6.9301 17.039L6.93725 17.1301L6.94531 17.221L6.95429 17.3118L6.96418 17.4024L6.97499 17.4928L6.98671 17.5832L6.99934 17.6732L7.01289 17.7632L7.02732 17.8528L7.04267 17.9423L7.05891 18.0316L7.07605 18.1206L7.09408 18.2094L7.11299 18.2979L7.13281 18.3863L7.15348 18.4742L7.17506 18.562L7.19751 18.6495L7.22083 18.7367L7.24498 18.8235L7.27006 18.9102L7.29594 18.9964L7.32275 19.0824L7.35035 19.168L7.37883 19.2533L7.40816 19.3382L7.43829 19.4227L7.46928 19.507L7.50114 19.5908L7.53379 19.6742L7.56724 19.7573L7.60155 19.84L7.63665 19.9222L7.67261 20.004L7.7093 20.0855L7.74686 20.1664L7.7852 20.247L7.82427 20.3272L7.8642 20.4068L7.90485 20.4861L7.94629 20.5648L7.98853 20.6431L8.03149 20.7209L8.07524 20.7982L8.11971 20.875L8.16498 20.9513L8.21097 21.0272L8.25767 21.1024L8.3051 21.1772L8.35332 21.2515L8.40212 21.3251L8.45178 21.3984L8.50202 21.471L8.55305 21.543L8.60473 21.6145L8.65713 21.6854L8.71018 21.7558L8.76395 21.8256L8.81829 21.8947L8.87336 21.9633L8.92908 22.0313L8.98544 22.0987L9.04246 22.1654L9.10012 22.2317L9.15836 22.2971L9.21725 22.3621L9.27671 22.4263L9.33682 22.4899L9.39751 22.5529L9.45885 22.6152L9.52069 22.6769L9.58318 22.7379L9.64625 22.7983L9.70975 22.8579L9.77397 22.917L9.83863 22.9752L9.90386 23.0328L9.96967 23.0898L10.036 23.146L10.1028 23.2016L10.1701 23.2563L10.2379 23.3104L10.3063 23.3638L10.3751 23.4166L10.4444 23.4685L10.5141 23.5197L10.5843 23.5702L10.6551 23.6199L10.7262 23.6689L10.7978 23.7172L10.8698 23.7647L10.9423 23.8115L11.0152 23.8575L11.0884 23.9027L11.1621 23.9472L11.2361 23.991L11.3105 24.0339L11.3854 24.076L11.4605 24.1174L11.5361 24.1581L11.612 24.1979L11.6882 24.2369L11.7648 24.2752L11.8418 24.3127L11.919 24.3494L11.9965 24.3853L12.0744 24.4204L12.1525 24.4547L12.2309 24.4881L12.3096 24.5208L12.3886 24.5527L12.4677 24.5838L12.5472 24.614L12.627 24.6435L12.7069 24.6721L12.787 24.6999L12.8675 24.727L12.9481 24.7531L13.0289 24.7784L13.1099 24.803L13.191 24.8267L13.2723 24.8496L13.3539 24.8716L13.4355 24.8929L13.5173 24.9133L13.5993 24.9328L13.6814 24.9516L13.7636 24.9696L13.8459 24.9867L13.9283 25.0029L14.0109 25.0183L14.0935 25.0329L14.1762 25.0467L14.259 25.0596L14.3418 25.0718L14.4247 25.083L14.5075 25.0935L14.5905 25.1031L14.6735 25.1119L14.7565 25.1198L14.8395 25.127L14.9226 25.1332L15.0056 25.1387L15.0886 25.1433L15.1715 25.1472L15.2546 25.1502L15.3375 25.1523L15.4203 25.1536L15.5031 25.1542L15.5858 25.1539L15.6685 25.1527L15.7511 25.1508L15.8336 25.148L15.916 25.1445L15.9983 25.14L16.0804 25.1349L16.1625 25.1288L16.2444 25.122L16.3261 25.1144L16.4078 25.1059L16.4893 25.0967L16.5706 25.0867L16.6518 25.0758L16.7327 25.0643L16.8135 25.0518L16.8941 25.0386L16.9744 25.0246L17.0546 25.0098L17.1346 24.9942L17.2143 24.9779L17.2939 24.9608L17.373 24.9429L17.452 24.9243L17.5307 24.9048L17.6092 24.8846L17.6874 24.8637L17.7653 24.8419L17.843 24.8195L17.9203 24.7963L17.9973 24.7723L18.074 24.7476L18.1504 24.7222L18.2265 24.696L18.3022 24.6691L18.3776 24.6414L18.4527 24.6131L18.5273 24.584L18.6016 24.5542L18.6757 24.5236L18.7493 24.4924L18.8224 24.4605L18.8953 24.4279L18.9677 24.3946L19.0397 24.3606L19.1114 24.3259L19.1825 24.2906L19.2534 24.2544L19.3237 24.2178L19.3936 24.1803L19.463 24.1424L19.532 24.1037L19.6006 24.0643L19.6687 24.0243L19.7364 23.9837L19.8035 23.9424L19.8701 23.9006L19.9365 23.858L20.002 23.815L20.0673 23.7712L20.1321 23.7267L20.1962 23.6818L20.2598 23.6363L20.3231 23.5901L20.3856 23.5435L20.4478 23.4961L20.5094 23.4482L20.5702 23.3998L20.6309 23.3507L20.6908 23.3011L20.75 23.2511L20.809 23.2003L20.8671 23.1491L20.9247 23.0975L20.9819 23.0451L21.0383 22.9924L21.0942 22.9391L21.1496 22.8853L21.2042 22.831L21.2584 22.7762L21.3119 22.7209L21.3648 22.6651L21.417 22.6089L21.4687 22.5522L21.5198 22.495L21.5701 22.4375L21.62 22.3793L21.6691 22.3208L21.7175 22.2619L21.7654 22.2024L21.8126 22.1428L21.8591 22.0825L21.9051 22.0219L21.9503 21.9608L21.9949 21.8995L22.0387 21.8378L22.082 21.7755L22.1245 21.713L22.1664 21.6501L22.2077 21.5867L22.2481 21.5232L22.288 21.4592L22.3271 21.3949L22.3656 21.3303L22.4033 21.2654L22.4405 21.2L22.4768 21.1346L22.5125 21.0686L22.5475 21.0024L22.5816 20.936L22.6153 20.8691L22.648 20.8024L22.6802 20.7349L22.7115 20.6676L22.7424 20.5996L22.7722 20.5318L22.8016 20.4633L22.8301 20.395L22.8578 20.3263L22.8849 20.2574L22.9113 20.1882L22.9368 20.119L22.9619 20.0494L22.9859 19.9798L23.0094 19.9099L23.0321 19.8399L23.054 19.7696L23.0753 19.6993L23.0958 19.6289L23.1155 19.5582L23.1345 19.4875L23.1528 19.4166L23.1703 19.3456L23.1871 19.2747L23.2032 19.2033L23.2185 19.132L23.2331 19.0607L23.2469 18.9894L23.26 18.9179L23.2723 18.8461L23.2839 18.7746L23.2948 18.7029L23.3049 18.6311L23.3142 18.5595L23.3229 18.4877L23.3308 18.4157L23.338 18.3442L23.3444 18.2721L23.3501 18.2003L23.355 18.1287L23.3593 18.0568L23.3628 17.9851L23.3655 17.9135L23.3675 17.8416L23.3687 17.7702L23.3693 17.6985L23.3691 17.627L23.3682 17.5555L23.3666 17.4843L23.3642 17.413L23.3611 17.3418L23.3573 17.2709L23.3527 17.1998L23.3475 17.1288L23.3416 17.0583L23.3349 16.9875L23.3274 16.9172L23.3193 16.8467L23.3105 16.7766L23.301 16.7066L23.2907 16.6366L23.2798 16.567L23.2682 16.4975L23.2559 16.4282L23.2428 16.3591L23.229 16.2899L23.2146 16.2213L23.1996 16.1528L23.1838 16.0845L23.1673 16.0163L23.1502 15.9486L23.1323 15.8808L23.1139 15.8135L23.0947 15.7463L23.0749 15.6795L23.0544 15.6128L23.0332 15.5464L23.0114 15.4805L22.989 15.4147L22.9658 15.3491L22.9422 15.284L22.9177 15.219L22.8927 15.1545L22.8671 15.0902L22.8408 15.0261L22.8139 14.9626L22.7863 14.8992L22.7582 14.8363L22.7294 14.7737L22.7 14.7113L22.6699 14.6493L22.6395 14.5878L22.6082 14.5265L22.5765 14.4658L22.5441 14.4054L22.5111 14.3451L22.4776 14.2856L22.4435 14.2262L22.4088 14.1674L22.3735 14.1088L22.3378 14.0508L22.3013 13.993L22.2645 13.9358L22.227 13.879L22.189 13.8227L22.1504 13.7666L22.1113 13.7111L22.0718 13.6561L22.0316 13.6014L21.991 13.5472L21.9498 13.4935L21.9083 13.4403L21.8661 13.3875L21.8234 13.3352L21.7802 13.2833L21.7366 13.2319L21.6926 13.1811L21.6479 13.1307L21.6029 13.0808L21.5573 13.0314L21.5115 12.9827L21.4649 12.9342L21.4182 12.8864L21.3707 12.8389L21.323 12.7921L21.2749 12.7459L21.2264 12.7L21.1773 12.6547L21.1278 12.6101L21.078 12.5659L21.0276 12.5222L20.9773 12.4792L20.9262 12.4366L20.8748 12.3946L20.823 12.3532L20.7708 12.3122L20.7184 12.2719L20.6657 12.2323L20.6123 12.193L20.5586 12.1542L20.5049 12.1163L20.4505 12.0787L20.3962 12.042L20.3413 12.0056L20.2861 11.9699L20.2305 11.9347L20.1749 11.9002L20.1187 11.8662L20.0624 11.8328L20.0056 11.8L19.9489 11.7679L19.8916 11.7363L19.8341 11.7053L19.7764 11.6749L19.7185 11.6452L19.6603 11.616L19.6017 11.5874L19.5431 11.5595L19.4844 11.5322L19.425 11.5054L19.3659 11.4793L19.3064 11.4539L19.2465 11.4289L19.1866 11.4047L19.1267 11.3811L19.0664 11.3582L19.0058 11.3357L18.9453 11.314L18.8845 11.2928L18.8235 11.2723L18.7626 11.2525L18.7014 11.2333L18.6402 11.2147L18.5785 11.1966L18.517 11.1793L18.4554 11.1626L18.3936 11.1465L18.3318 11.131L18.2697 11.1162L18.2077 11.102L18.1457 11.0885L18.0834 11.0755L18.021 11.0632L17.9589 11.0516L17.8964 11.0406L17.8341 11.0302L17.7715 11.0203L17.7092 11.0112L17.6464 11.0027L17.584 10.9949L17.5215 10.9876L17.4589 10.981L17.3964 10.975L17.3338 10.9696L17.2714 10.9649L17.2087 10.9608L17.1463 10.9574L17.084 10.9545L17.0213 10.9523L16.9591 10.9507L16.8969 10.9497L16.8347 10.9494L16.7921 10.9495L16.8243 13.6952L16.8436 13.6953L16.8793 13.6958L16.9152 13.6967L16.9511 13.6979L16.987 13.6995L17.0229 13.7015L17.0589 13.7038L17.0949 13.7066L17.131 13.7097L17.1671 13.7132L17.2032 13.7171L17.2393 13.7213L17.2755 13.7259L17.3116 13.731L17.3478 13.7363L17.384 13.7422L17.4201 13.7483L17.4563 13.7549L17.4924 13.7619L17.5285 13.7691L17.5647 13.7769L17.6008 13.785L17.6369 13.7935L17.6728 13.8024L17.7089 13.8116L17.7449 13.8213L17.7808 13.8313L17.8166 13.8417L17.8525 13.8526L17.8882 13.8638L17.9239 13.8754L17.9596 13.8874L17.9951 13.8998L18.0306 13.9125L18.066 13.9256L18.1014 13.9392L18.1366 13.9531L18.1718 13.9674L18.2068 13.9821L18.2418 13.9971L18.2766 14.0126L18.3114 14.0285L18.3461 14.0447L18.3806 14.0614L18.415 14.0783L18.4493 14.0957L18.4834 14.1135L18.5174 14.1316L18.5513 14.1502L18.585 14.1691L18.6186 14.1883L18.652 14.208L18.6853 14.228L18.7184 14.2484L18.7514 14.2692L18.7841 14.2904L18.8167 14.3118L18.8492 14.3337L18.8815 14.356L18.9135 14.3787L18.9454 14.4016L18.9771 14.425L19.0086 14.4487L19.0399 14.4728L19.0709 14.4972L19.1019 14.522L19.1325 14.5472L19.1629 14.5726L19.1932 14.5985L19.2232 14.6247L19.2529 14.6512L19.2825 14.6782L19.3118 14.7054L19.3408 14.733L19.3696 14.7609L19.3982 14.7892L19.4264 14.8178L19.4545 14.8467L19.4823 14.876L19.5098 14.9056L19.537 14.9355L19.564 14.9658L19.5907 14.9963L19.6171 15.0272L19.6432 15.0584L19.669 15.0899L19.6946 15.1218L19.7198 15.1539L19.7447 15.1864L19.7694 15.2192L19.7937 15.2522L19.8177 15.2856L19.8414 15.3192L19.8648 15.3531L19.8879 15.3874L19.9106 15.4219L19.933 15.4567L19.9551 15.4918L19.9768 15.5272L19.9982 15.5628L20.0193 15.5987L20.04 15.6349L20.0604 15.6713L20.0803 15.708L20.1 15.745L20.1193 15.7822L20.1382 15.8197L20.1568 15.8574L20.175 15.8953L20.1928 15.9336L20.2102 15.972L20.2273 16.0107L20.244 16.0496L20.2603 16.0887L20.2762 16.128L20.2917 16.1676L20.3069 16.2074L20.3216 16.2474L20.336 16.2876L20.3499 16.328L20.3634 16.3686L20.3766 16.4094L20.3893 16.4504L20.4016 16.4916L20.4135 16.533L20.4249 16.5746L20.436 16.6163L20.4467 16.6582L20.4569 16.7003L20.4667 16.7425L20.476 16.7848L20.485 16.8275L20.4935 16.8702L20.5015 16.9129L20.5091 16.956L20.5163 16.9991L20.5231 17.0423L20.5294 17.0857L20.5352 17.1292L20.5406 17.1728L20.5456 17.2166L20.5501 17.2605L20.5542 17.3044L20.5578 17.3485L20.5609 17.3927L20.5636 17.4369L20.5658 17.4813L20.5676 17.5257L20.5689 17.5702L20.5697 17.6148L20.5702 17.6595L20.57 17.7041L20.5695 17.7489L20.5685 17.7938L20.567 17.8387L20.5651 17.8836L20.5626 17.9286L20.5597 17.9736L20.5563 18.0186L20.5524 18.0637L20.5481 18.1088L20.5434 18.1539L20.538 18.199L20.5323 18.2441L20.5261 18.2893L20.5194 18.3344L20.5121 18.3795L20.5044 18.4246L20.4963 18.4696L20.4876 18.5147L20.4786 18.5598L20.4689 18.6048L20.4588 18.6497L20.4483 18.6947L20.4372 18.7395L20.4256 18.7844L20.4137 18.8291L20.4011 18.8739L20.3882 18.9184L20.3747 18.963L20.3608 19.0075L20.3464 19.0519L20.3314 19.0963L20.3161 19.1405L20.3002 19.1846L20.2838 19.2286L20.267 19.2725L20.2497 19.3163L20.2319 19.36L20.2137 19.4035L20.1949 19.447L20.1757 19.4903L20.156 19.5334L20.1358 19.5764L20.1151 19.6193L20.0941 19.662L20.0725 19.7046L20.0504 19.747L20.0279 19.7891L20.0049 19.8312L19.9814 19.8731L19.9575 19.9147L19.9331 19.9563L19.9083 19.9975L19.8829 20.0387L19.8572 20.0795L19.8309 20.1202L19.8042 20.1607L19.7771 20.2009L19.7495 20.241L19.7214 20.2808L19.6929 20.3203L19.664 20.3597L19.6346 20.3987L19.6048 20.4376L19.5745 20.4762L19.5438 20.5145L19.5126 20.5526L19.4811 20.5904L19.4491 20.6279L19.4166 20.6651L19.3837 20.7021L19.3504 20.7388L19.3167 20.7752L19.2826 20.8112L19.248 20.8471L19.213 20.8826L19.1776 20.9177L19.1419 20.9526L19.1056 20.9872L19.069 21.0214L19.032 21.0552L18.9946 21.0888L18.9568 21.1221L18.9186 21.155L18.8801 21.1875L18.8411 21.2197L18.8017 21.2515L18.762 21.283L18.7219 21.3141L18.6815 21.3448L18.6406 21.3752L18.5995 21.4052L18.5579 21.4348L18.516 21.4641L18.4737 21.4929L18.4311 21.5214L18.3882 21.5494L18.3448 21.5771L18.3012 21.6044L18.2572 21.6312L18.2129 21.6576L18.1682 21.6837L18.1233 21.7093L18.0779 21.7344L18.0324 21.7592L17.9865 21.7835L17.9403 21.8075L17.8937 21.8309L17.8469 21.8539L17.7998 21.8765L17.7524 21.8986L17.7047 21.9203L17.6567 21.9414L17.6085 21.9622L17.56 21.9825L17.5112 22.0023L17.4621 22.0216L17.4128 22.0406L17.3632 22.059L17.3134 22.0769L17.2634 22.0944L17.2131 22.1113L17.1625 22.1278L17.1118 22.1438L17.0608 22.1592L17.0096 22.1743L16.9582 22.1888L16.9066 22.2028L16.8548 22.2163L16.8027 22.2293L16.7505 22.2417L16.6981 22.2537L16.6455 22.2651L16.5927 22.2761L16.5397 22.2865L16.4866 22.2964L16.4333 22.3058L16.3798 22.3147L16.3263 22.323L16.2725 22.3307L16.2187 22.338L16.1646 22.3448L16.1105 22.351L16.0562 22.3566L16.0018 22.3617L15.9473 22.3662L15.8927 22.3703L15.8379 22.3737L15.7831 22.3767L15.7282 22.3791L15.6732 22.3809L15.6181 22.3822L15.5629 22.3829L15.5077 22.3831L15.4524 22.3827L15.3971 22.3818L15.3416 22.3803L15.2862 22.3782L15.2307 22.3756L15.1751 22.3724L15.1196 22.3687L15.064 22.3644L15.0084 22.3595L14.9528 22.3541L14.8972 22.3481L14.8416 22.3415L14.786 22.3344L14.7303 22.3267L14.6748 22.3184L14.6192 22.3096L14.5637 22.3002L14.5082 22.2902L14.4528 22.2797L14.3973 22.2686L14.342 22.2569L14.2867 22.2447L14.2315 22.2318L14.1764 22.2184L14.1212 22.2046L14.0662 22.19L14.0114 22.1749L13.9565 22.1592L13.9019 22.143L13.8472 22.1262L13.7928 22.1088L13.7384 22.091L13.6841 22.0725L13.6301 22.0534L13.5761 22.0338L13.5222 22.0136L13.4686 21.9928L13.4151 21.9715L13.3617 21.9496L13.3085 21.9272L13.2556 21.9043L13.2027 21.8807L13.15 21.8566L13.0976 21.832L13.0453 21.8067L12.9933 21.781L12.9414 21.7547L12.8898 21.7278L12.8384 21.7004L12.7873 21.6725L12.7363 21.644L12.6856 21.615L12.6351 21.5854L12.5849 21.5552L12.535 21.5246L12.4853 21.4934L12.4359 21.4617L12.3867 21.4295L12.3379 21.3967L12.2893 21.3634L12.2411 21.3296L12.1931 21.2952L12.1453 21.2604L12.098 21.225L12.0509 21.1891L12.0042 21.1528L11.9578 21.1158L11.9117 21.0784L11.866 21.0406L11.8206 21.0022L11.7755 20.9632L11.7308 20.9238L11.6865 20.884L11.6425 20.8436L11.5989 20.8027L11.5557 20.7614L11.5129 20.7196L11.4703 20.6774L11.4283 20.6346L11.3866 20.5914L11.3453 20.5477L11.3045 20.5036L11.264 20.459L11.224 20.4139L11.1844 20.3685L11.1453 20.3225L11.1065 20.2762L11.0681 20.2294L11.0303 20.1821L10.9929 20.1344L10.9559 20.0864L10.9194 20.0379L10.8833 19.9889L10.8478 19.9396L10.8127 19.8899L10.778 19.8397L10.7439 19.7891L10.7102 19.7382L10.677 19.6869L10.6444 19.6352L10.6122 19.5831L10.5805 19.5307L10.5493 19.4778L10.5187 19.4246L10.4886 19.371L10.4589 19.3171L10.4298 19.2629L10.4013 19.2083L10.3732 19.1533L10.3457 19.098L10.3187 19.0424L10.2924 18.9864L10.2665 18.9302L10.2412 18.8736L10.2165 18.8168L10.1922 18.7595L10.1686 18.7021L10.1455 18.6443L10.123 18.5862L10.1011 18.5278L10.0799 18.4692L10.0591 18.4103L10.0389 18.3512L10.0193 18.2918L10.0004 18.232L9.98199 18.1721L9.96419 18.112L9.94696 18.0515L9.93038 17.9909L9.91445 17.93L9.89903 17.8689L9.88433 17.8076L9.8702 17.7462L9.85665 17.6844L9.84375 17.6225L9.83149 17.5604L9.81982 17.4982L9.80879 17.4357L9.79841 17.3731L9.78868 17.3103L9.77952 17.2473L9.77102 17.1843L9.76324 17.121L9.75603 17.0576L9.74947 16.9941L9.74356 16.9304L9.7383 16.8667L9.73368 16.8028L9.72972 16.7388L9.7264 16.6747L9.72374 16.6106L9.72172 16.5463L9.72042 16.4819L9.71977 16.4176L9.7197 16.3531L9.72035 16.2885L9.72172 16.2239L9.72366 16.1592L9.72633 16.0945L9.72965 16.0298L9.73361 15.9651L9.73822 15.9003L9.74356 15.8355L9.74954 15.7707L9.75617 15.7059L9.76352 15.6411L9.77152 15.5763L9.78017 15.5115L9.78954 15.4468L9.79956 15.3821L9.8103 15.3174L9.82162 15.2528L9.83366 15.1882L9.84641 15.1237L9.85982 15.0592L9.87387 14.9949L9.88858 14.9306L9.904 14.8664L9.92008 14.8023L9.93687 14.7383L9.95431 14.6744L9.97241 14.6107L9.99115 14.547L10.0106 14.4835L10.0307 14.42L10.0515 14.3568L10.073 14.2937L10.0951 14.2307L10.1179 14.168L10.1413 14.1054L10.1654 14.043L10.1902 13.9807L10.2157 13.9186L10.2418 13.8568L10.2685 13.7951L10.296 13.7336L10.324 13.6724L10.3528 13.6114L10.3821 13.5507L10.4122 13.4901L10.4428 13.4298L10.4741 13.3698L10.5061 13.31L10.5387 13.2505L10.5719 13.1912L10.6058 13.1323L10.6404 13.0736L10.6755 13.0152L10.7113 12.9571L10.7477 12.8994L10.7848 12.8419L10.8224 12.7847L10.8607 12.7279L10.8996 12.6714L10.9391 12.6152L10.9793 12.5595L11.02 12.504L11.0613 12.4488L11.1032 12.3942L11.1458 12.3398L11.1889 12.2858L11.2327 12.2321L11.2769 12.179L11.3218 12.1261L11.3673 12.0736L11.4134 12.0216L11.46 11.97L11.5072 11.9189L11.555 11.8681L11.6034 11.8178L11.6523 11.7679L11.7017 11.7184L11.7517 11.6694L11.8022 11.6209L11.8534 11.5728L11.905 11.5252L11.9571 11.4781L12.0098 11.4314L12.063 11.3853L12.1167 11.3395L12.171 11.2944L12.2257 11.2497L12.281 11.2055L12.3367 11.1619L12.393 11.1187L12.4497 11.0761L12.507 11.034L12.5647 10.9925L12.6229 10.9515L12.6815 10.911L12.7407 10.871L12.8002 10.8317L12.8603 10.7929L12.9208 10.7547L12.9817 10.717L13.0431 10.6799L13.1049 10.6434L13.1672 10.6075L13.2298 10.5721L13.2929 10.5374L13.3564 10.5032L13.4203 10.4697L13.4845 10.4368L13.5492 10.4045L13.6143 10.3728L13.6797 10.3417L13.7455 10.3112L13.8117 10.2814L13.8782 10.2523L13.9452 10.2237L14.0124 10.1958L14.08 10.1686L14.148 10.1419L14.2162 10.116L14.2848 10.0907L14.3537 10.0661L14.4229 10.0421L14.4924 10.0188L14.5623 9.99619L14.6323 9.97423L14.7027 9.95299L14.7734 9.93241L14.8443 9.91255L14.9155 9.89335L14.9869 9.87481L15.0587 9.85699L15.1306 9.8399L15.2028 9.82354L15.2752 9.80783L15.3478 9.79284L15.4206 9.77859L15.4572 9.77175ZM16.3523 15.052L15.5215 15.2523L15.4727 11.0999L15.4336 11.1088L15.3746 11.1228L15.3158 11.1374L15.2573 11.1526L15.1989 11.1683L15.1409 11.1846L15.0829 11.2015L15.0254 11.2188L14.9678 11.2368L14.911 11.2552L14.854 11.2744L14.7973 11.294L14.7409 11.3142L14.6848 11.3348L14.6291 11.356L14.5736 11.3778L14.5183 11.4L14.4634 11.4228L14.4085 11.4462L14.3544 11.4699L14.3003 11.4944L14.2466 11.5192L14.1931 11.5446L14.14 11.5704L14.0871 11.5968L14.0348 11.6237L13.9827 11.651L13.9309 11.6789L13.8795 11.7072L13.8284 11.736L13.7777 11.7653L13.7275 11.795L13.6773 11.8253L13.6277 11.8559L13.5785 11.887L13.5297 11.9186L13.4811 11.9507L13.433 11.9832L13.3853 12.0161L13.3379 12.0494L13.2911 12.0832L13.2445 12.1174L13.1983 12.1521L13.1526 12.1872L13.1073 12.2227L13.0625 12.2584L13.0181 12.2947L12.9739 12.3315L12.9303 12.3686L12.8872 12.406L12.8444 12.4439L12.8021 12.4821L12.7602 12.5207L12.7188 12.5598L12.6778 12.5991L12.6373 12.6387L12.5972 12.6789L12.5576 12.7192L12.5185 12.76L12.4799 12.8011L12.4415 12.8427L12.4038 12.8843L12.3665 12.9264L12.3297 12.9689L12.2935 13.0115L12.2576 13.0547L12.2223 13.0979L12.1874 13.1416L12.1531 13.1855L12.1191 13.2298L12.0857 13.2744L12.0529 13.3191L12.0204 13.3641L11.9886 13.4094L11.9571 13.4551L11.9262 13.5009L11.8959 13.5471L11.866 13.5934L11.8367 13.6399L11.8078 13.6868L11.7795 13.7338L11.7516 13.7812L11.7244 13.8286L11.6976 13.8763L11.6713 13.9243L11.6456 13.9723L11.6204 14.0206L11.5957 14.0691L11.5715 14.1179L11.548 14.1667L11.5248 14.2158L11.5023 14.265L11.4803 14.3144L11.4587 14.3639L11.4377 14.4136L11.4174 14.4634L11.3975 14.5134L11.3781 14.5635L11.3593 14.6138L11.341 14.664L11.3233 14.7146L11.3061 14.7652L11.2894 14.8159L11.2733 14.8667L11.2577 14.9176L11.2426 14.9686L11.2282 15.0196L11.2142 15.0708L11.2008 15.1221L11.1879 15.1734L11.1756 15.2247L11.1638 15.2761L11.1525 15.3276L11.1419 15.3792L11.1317 15.4307L11.122 15.4822L11.113 15.5339L11.1045 15.5855L11.0965 15.6371L11.089 15.6889L11.082 15.7405L11.0757 15.7923L11.0699 15.8438L11.0645 15.8955L11.0598 15.9473L11.0555 15.9989L11.0518 16.0505L11.0487 16.1022L11.046 16.1536L11.0439 16.2051L11.0423 16.2566L11.0413 16.308L11.0407 16.3594L11.0408 16.4107L11.0413 16.4619L11.0424 16.5131L11.044 16.5641L11.0461 16.6151L11.0487 16.666L11.0518 16.7168L11.0555 16.7675L11.0597 16.8181L11.0644 16.8686L11.0696 16.919L11.0753 16.9691L11.0815 17.0194L11.0882 17.0693L11.0955 17.1192L11.1032 17.1689L11.1114 17.2185L11.1201 17.268L11.1293 17.3173L11.1391 17.3664L11.1492 17.4153L11.16 17.4642L11.1711 17.5128L11.1828 17.5613L11.1949 17.6094L11.2076 17.6576L11.2207 17.7054L11.2342 17.7532L11.2483 17.8006L11.2627 17.848L11.2777 17.895L11.2932 17.9418L11.3091 17.9886L11.3255 18.035L11.3422 18.0811L11.3595 18.1271L11.3772 18.1728L11.3954 18.2183L11.414 18.2635L11.4329 18.3085L11.4525 18.3533L11.4723 18.3978L11.4927 18.442L11.5134 18.4859L11.5345 18.5296L11.5562 18.5731L11.5782 18.6162L11.6006 18.659L11.6234 18.7016L11.6467 18.7439L11.6703 18.7859L11.6943 18.8277L11.7188 18.869L11.7436 18.9102L11.7688 18.951L11.7944 18.9914L11.8204 19.0316L11.8467 19.0715L11.8735 19.1111L11.9005 19.1502L11.928 19.1891L11.9558 19.2277L11.9839 19.2659L12.0125 19.3038L12.0413 19.3414L12.0705 19.3785L12.1001 19.4154L12.13 19.452L12.1601 19.488L12.1907 19.5239L12.2216 19.5594L12.2527 19.5944L12.2844 19.6292L12.3161 19.6635L12.3482 19.6976L12.3807 19.7312L12.4133 19.7644L12.4464 19.7973L12.4797 19.8298L12.5133 19.8619L12.5472 19.8936L12.5813 19.925L12.6158 19.956L12.6505 19.9865L12.6854 20.0167L12.7206 20.0465L12.7561 20.0759L12.7918 20.1049L12.8278 20.1335L12.864 20.1616L12.9004 20.1894L12.9371 20.2168L12.974 20.2438L13.0111 20.2704L13.0485 20.2966L13.086 20.3223L13.1238 20.3476L13.1617 20.3725L13.1998 20.397L13.2383 20.4211L13.2768 20.4447L13.3155 20.468L13.3545 20.4908L13.3935 20.5131L13.4327 20.5351L13.4723 20.5567L13.5119 20.5778L13.5516 20.5984L13.5914 20.6187L13.6316 20.6385L13.6717 20.6579L13.7121 20.6768L13.7525 20.6954L13.793 20.7134L13.8338 20.7311L13.8747 20.7483L13.9156 20.7651L13.9567 20.7815L13.9978 20.7974L14.0392 20.8128L14.0804 20.8279L14.122 20.8425L14.1634 20.8566L14.205 20.8704L14.2468 20.8837L14.2886 20.8966L14.3304 20.9089L14.3723 20.9209L14.4143 20.9324L14.4563 20.9435L14.4983 20.9542L14.5404 20.9644L14.5825 20.9742L14.6247 20.9835L14.6669 20.9924L14.7091 21.0008L14.7514 21.0089L14.7936 21.0165L14.8359 21.0237L14.8782 21.0304L14.9206 21.0367L14.9627 21.0425L15.005 21.0479L15.0473 21.0529L15.0896 21.0575L15.1318 21.0616L15.1741 21.0653L15.2162 21.0686L15.2583 21.0714L15.3005 21.0738L15.3425 21.0758L15.3844 21.0774L15.4265 21.0784L15.4683 21.0792L15.5102 21.0795L15.552 21.0793L15.5936 21.0788L15.6354 21.0778L15.6769 21.0764L15.7183 21.0747L15.7597 21.0724L15.8011 21.0698L15.8422 21.0667L15.8834 21.0633L15.9243 21.0595L15.9653 21.0552L16.006 21.0505L16.0466 21.0455L16.0873 21.04L16.1276 21.0342L16.1679 21.0279L16.2082 21.0213L16.2482 21.0142L16.288 21.0068L16.3278 20.999L16.3674 20.9907L16.4068 20.9822L16.446 20.9732L16.4852 20.9638L16.5242 20.9541L16.563 20.944L16.6016 20.9336L16.64 20.9227L16.6785 20.9115L16.7165 20.8999L16.7543 20.888L16.7922 20.8756L16.8297 20.863L16.867 20.85L16.9041 20.8366L16.941 20.8229L16.9779 20.8088L17.0144 20.7944L17.0507 20.7796L17.0868 20.7646L17.1227 20.7491L17.1584 20.7333L17.1937 20.7172L17.2291 20.7008L17.264 20.684L17.2987 20.667L17.3333 20.6496L17.3675 20.6319L17.4015 20.6139L17.4354 20.5955L17.4689 20.5768L17.5021 20.5579L17.5352 20.5387L17.568 20.5191L17.6004 20.4992L17.6326 20.4791L17.6646 20.4587L17.6963 20.438L17.7278 20.417L17.759 20.3958L17.7899 20.3742L17.8205 20.3523L17.8508 20.3303L17.8809 20.3079L17.9106 20.2853L17.9401 20.2624L17.9693 20.2392L17.9983 20.2158L18.0268 20.1923L18.0552 20.1684L18.0831 20.1443L18.1108 20.1199L18.1383 20.0953L18.1654 20.0704L18.1922 20.0454L18.2186 20.0202L18.2448 19.9947L18.2707 19.9689L18.2963 19.943L18.3215 19.9169L18.3463 19.8905L18.3709 19.864L18.3953 19.8372L18.4191 19.8104L18.4429 19.7832L18.4661 19.7558L18.4891 19.7284L18.5118 19.7006L18.534 19.6728L18.5561 19.6448L18.5778 19.6166L18.5991 19.5883L18.6201 19.5597L18.6407 19.5311L18.661 19.5022L18.6811 19.4731L18.7007 19.4441L18.72 19.4147L18.739 19.3854L18.7576 19.3558L18.7759 19.3262L18.7938 19.2963L18.8114 19.2664L18.8287 19.2363L18.8456 19.2062L18.8621 19.1759L18.8784 19.1454L18.8942 19.115L18.9097 19.0844L18.9249 19.0537L18.9398 19.023L18.9543 18.992L18.9684 18.9611L18.9821 18.93L18.9956 18.899L19.0087 18.8677L19.0214 18.8365L19.0338 18.805L19.0458 18.7738L19.0575 18.7421L19.0688 18.7109L19.0798 18.6792L19.0905 18.6475L19.1007 18.6159L19.1107 18.5842L19.1202 18.5526L19.1295 18.5206L19.1383 18.489L19.147 18.4569L19.1551 18.4254L19.163 18.3934L19.1705 18.3614L19.1776 18.3296L19.1844 18.2979L19.1909 18.2657L19.197 18.2339L19.2028 18.2019L19.2082 18.1702L19.2133 18.1383L19.2181 18.1064L19.2225 18.0744L19.2265 18.0426L19.2302 18.0109L19.2336 17.9792L19.2367 17.9473L19.2394 17.9157L19.2418 17.884L19.2438 17.8523L19.2455 17.8208L19.2469 17.7893L19.2479 17.7579L19.2486 17.7264L19.2491 17.6949L19.2491 17.6637L19.2488 17.6325L19.2483 17.6014L19.2473 17.5703L19.2461 17.5391L19.2445 17.5085L19.2426 17.4772L19.2405 17.4467L19.238 17.4161L19.2351 17.3853L19.232 17.3548L19.2286 17.3246L19.2248 17.294L19.2207 17.264L19.2163 17.2339L19.2117 17.2041L19.2067 17.1741L19.2014 17.1443L19.1959 17.1147L19.19 17.0853L19.1838 17.0558L19.1773 17.0266L19.1706 16.9974L19.1636 16.9685L19.1563 16.9398L19.1486 16.9108L19.1408 16.8824L19.1326 16.8538L19.1241 16.8256L19.1154 16.7975L19.1064 16.7696L19.0971 16.7417L19.0875 16.7139L19.0778 16.6866L19.0677 16.6593L19.0573 16.632L19.0467 16.6051L19.0358 16.578L19.0248 16.5516L19.0134 16.5249L19.0018 16.4987L18.9899 16.4726L18.9778 16.4466L18.9655 16.4208L18.9529 16.3952L18.9401 16.3698L18.927 16.3446L18.9137 16.3196L18.9002 16.2948L18.8864 16.2702L18.8724 16.2457L18.8582 16.2215L18.8438 16.1975L18.8291 16.1736L18.8143 16.1501L18.7992 16.1267L18.7839 16.1035L18.7684 16.0804L18.7528 16.0577L18.7369 16.0351L18.7208 16.0128L18.7045 15.9907L18.688 15.9688L18.6714 15.9471L18.6545 15.9256L18.6375 15.9044L18.6202 15.8834L18.6029 15.8626L18.5853 15.842L18.5676 15.8217L18.5497 15.8016L18.5316 15.7818L18.5134 15.7621L18.495 15.7427L18.4764 15.7236L18.4576 15.7046L18.4388 15.686L18.4198 15.6676L18.4007 15.6494L18.3812 15.6314L18.3619 15.6137L18.3423 15.5962L18.3226 15.579L18.3027 15.562L18.2828 15.5454L18.2627 15.5288L18.2425 15.5126L18.2222 15.4966L18.2017 15.4808L18.1811 15.4654L18.1605 15.4502L18.1396 15.4352L18.1188 15.4205L18.0978 15.4059L18.0768 15.3918L18.0556 15.3778L18.0342 15.364L18.013 15.3506L17.9914 15.3374L17.97 15.3244L17.9484 15.3118L17.9267 15.2993L17.9049 15.2871L17.8831 15.2752L17.8613 15.2635L17.8393 15.252L17.8174 15.2409L17.7952 15.2299L17.7731 15.2193L17.7509 15.209L17.7287 15.1988L17.7064 15.1889L17.684 15.1792L17.6618 15.1699L17.6393 15.1608L17.6168 15.152L17.5944 15.1434L17.5719 15.135L17.5495 15.127L17.5269 15.1191L17.5043 15.1115L17.4818 15.1042L17.4592 15.0971L17.4366 15.0902L17.4141 15.0837L17.3913 15.0774L17.3688 15.0713L17.3462 15.0655L17.3236 15.0599L17.3009 15.0546L17.2784 15.0495L17.2557 15.0447L17.2332 15.0401L17.2107 15.0358L17.1882 15.0317L17.1656 15.0278L17.1432 15.0243L17.1206 15.0209L17.0983 15.0178L17.0758 15.0149L17.0535 15.0123L17.0313 15.0099L17.0089 15.0078L16.9867 15.0058L16.9645 15.0041L16.9424 15.0027L16.9203 15.0014L16.8982 15.0005L16.8764 14.9998L16.8544 14.9992L16.8326 14.9989L16.8107 14.9988L16.789 14.999L16.7673 14.9994L16.7458 15L16.7242 15.0008L16.7029 15.0019L16.6814 15.0032L16.6602 15.0046L16.639 15.0063L16.6179 15.0083L16.5969 15.0104L16.5759 15.0127L16.5551 15.0152L16.5344 15.018L16.5138 15.021L16.4932 15.0242L16.4728 15.0275L16.4524 15.0311L16.4322 15.0349L16.412 15.0389L16.392 15.043L16.3721 15.0474L16.3523 15.052Z" fill="#374836"/>
</svg>
