<svg width="193" height="38" viewBox="0 0 193 38" fill="none" xmlns="http://www.w3.org/2000/svg">
<path d="M31.6756 6.87264C31.0771 7.4216 31.886 8.35219 32.4854 7.80252C34.5232 5.93355 35.903 3.49645 36.4755 0.754581C36.5679 0.311854 36.1837 -0.0802869 35.7541 0.0141823C30.9023 1.08117 27.0825 4.94763 25.9633 9.89542L23.8866 12.0267C24.9842 8.367 24.4916 4.31955 22.4048 1.00985C22.1655 0.630571 21.6238 0.630493 21.3844 1.00985C18.6495 5.34764 18.6494 10.9534 21.3843 15.2913C21.5628 15.5744 21.9349 15.6639 22.2187 15.4799C25.9793 13.0356 30.4064 13.0252 33.9519 14.953C31.2663 16.4154 28.1243 16.7414 25.1848 15.8347C24.4151 15.5972 24.066 16.7919 24.835 17.0291C28.4298 18.1379 32.3111 17.5811 35.4808 15.4764C35.8496 15.2314 35.8511 14.6752 35.4808 14.4293C32.2558 12.2877 28.3119 11.7822 24.7459 12.9085C27.2398 10.3491 27.0563 10.5931 27.102 10.3742C27.986 6.14019 31.0485 2.75067 35.0344 1.49373C34.4169 3.56785 33.2683 5.41187 31.6756 6.87264ZM21.8946 2.57927C23.6898 6.05702 23.6898 10.2442 21.8946 13.7221C20.0994 10.2443 20.0994 6.0571 21.8946 2.57927ZM31.1676 22.6901C26.8707 19.8368 21.5674 19.2706 16.8707 20.9906L20.2166 17.5569C20.7842 16.9743 19.9258 16.0917 19.3573 16.675L16.0114 20.1087C17.6874 15.2887 17.1358 9.846 14.3555 5.43619C14.1162 5.05691 13.5745 5.05683 13.3352 5.43619C10.8308 9.40826 10.0881 14.3049 11.2977 18.8706C11.5083 19.6657 12.6812 19.3395 12.4703 18.5434C11.4381 14.6471 11.9425 10.4902 13.8453 6.98449C16.5251 11.9208 16.365 18.0255 13.3665 22.8229L7.41134 28.9345C9.19101 24.2636 9.22108 19.0091 7.39463 14.265C7.09979 13.4988 5.96912 13.956 6.26441 14.7232C8.31135 20.04 7.87228 26.0405 5.11696 30.9734C1.72615 24.9053 1.89613 17.3367 5.62719 11.4192C6.0633 10.7276 5.04366 10.049 4.60687 10.7417C0.527582 17.2118 0.44077 25.532 4.34515 32.0814L0.186261 36.3495C-0.381468 36.9321 0.477151 37.8145 1.04556 37.2313L5.49944 32.6605C11.2579 28.865 18.6056 28.7015 24.5005 32.1708C19.8824 34.883 14.2397 35.4105 9.21106 33.5593C8.4555 33.281 8.04393 34.4545 8.80077 34.7331C14.3543 36.7777 20.7473 36.1813 25.9978 32.6946C26.3667 32.4496 26.3682 31.8935 25.9978 31.6476C20.6675 28.108 14.0481 27.497 8.27254 29.8146L13.9333 24.0051C19.2454 27.3022 25.9548 27.1988 31.1675 23.7373C31.5366 23.4921 31.5379 22.936 31.1676 22.6901ZM15.0238 23.2136C19.5639 20.6178 25.1191 20.6179 29.6591 23.2136C25.1191 25.8094 19.5639 25.8095 15.0238 23.2136Z" fill="#f9fbf3"/>
<path d="M48.2023 37.4226V0.999717H51.0172V37.4226H48.2023Z" fill="#f9fbf3"/>
<path d="M70.1401 38C67.7944 38 65.6832 37.4226 63.8066 36.2679C61.93 35.081 60.4444 33.4772 59.3497 31.4564C58.255 29.4035 57.7077 27.11 57.7077 24.576C57.7077 22.0419 58.2394 19.7805 59.3028 17.7918C60.3662 15.771 61.8049 14.1832 63.619 13.0284C65.433 11.8737 67.466 11.2963 69.7179 11.2963C71.4381 11.2963 72.9863 11.6171 74.3624 12.2586C75.7699 12.9001 76.974 13.7983 77.9749 14.953C79.007 16.0757 79.7889 17.3748 80.3206 18.8503C80.8836 20.2938 81.1651 21.8174 81.1651 23.4212C81.1651 23.742 81.1494 24.0788 81.1182 24.4316C81.0869 24.7845 81.04 25.1533 80.9774 25.5383H59.3497V22.892H79.3823L78.1156 23.9024C78.3033 22.0419 78.0374 20.3739 77.3181 18.8984C76.5987 17.3908 75.5666 16.204 74.2217 15.3379C72.9081 14.4398 71.4068 13.9907 69.7179 13.9907C68.0289 13.9907 66.4808 14.4558 65.0733 15.386C63.6659 16.2842 62.5556 17.5352 61.7424 19.139C60.9292 20.7107 60.5539 22.5391 60.6164 24.6241C60.5539 26.7091 60.9448 28.5535 61.7893 30.1573C62.6337 31.7611 63.791 33.0281 65.261 33.9584C66.731 34.8565 68.3573 35.3056 70.1401 35.3056C71.9541 35.3056 73.5336 34.8725 74.8785 34.0065C76.2234 33.1083 77.3181 31.9215 78.1625 30.446L80.5552 31.7451C79.9922 32.9319 79.1947 34.0065 78.1625 34.9688C77.1304 35.899 75.9263 36.6367 74.5501 37.182C73.2052 37.7273 71.7352 38 70.1401 38Z" fill="#f9fbf3"/>
<path d="M94.5512 38C92.9874 38 91.5956 37.6953 90.3758 37.0858C89.156 36.4764 88.1864 35.6263 87.4671 34.5357C86.7477 33.4451 86.388 32.1941 86.388 30.7828C86.388 29.5318 86.6539 28.361 87.1856 27.2704C87.7173 26.1798 88.5774 25.2496 89.7659 24.4797C90.9544 23.6778 92.5026 23.1165 94.4104 22.7957L104.497 21.0636V23.758L95.1611 25.3458C93.0343 25.6986 91.533 26.3562 90.6573 27.3185C89.7815 28.2808 89.3436 29.4035 89.3436 30.6865C89.3436 32.0658 89.8441 33.1885 90.8449 34.0546C91.877 34.9207 93.175 35.3537 94.7388 35.3537C96.5529 35.3537 98.1323 34.9367 99.4772 34.1027C100.822 33.2366 101.87 32.114 102.621 30.7347C103.371 29.3233 103.746 27.7836 103.746 26.1156V19.7645C103.746 18.0644 103.152 16.6851 101.964 15.6266C100.775 14.5681 99.227 14.0388 97.3192 14.0388C95.7553 14.0388 94.3479 14.4398 93.0968 15.2417C91.8458 16.0436 90.8918 17.0861 90.235 18.3692L87.7016 16.9738C88.1708 15.9474 88.8901 15.0011 89.8597 14.1351C90.8293 13.269 91.9552 12.5793 93.2376 12.0661C94.5199 11.5529 95.8804 11.2963 97.3192 11.2963C99.1332 11.2963 100.728 11.6652 102.104 12.4029C103.512 13.1086 104.607 14.103 105.388 15.386C106.17 16.637 106.561 18.0965 106.561 19.7645V37.4226H103.746V32.0819L104.075 32.3225C103.668 33.3489 102.996 34.2952 102.058 35.1612C101.119 35.9952 100.009 36.6849 98.7266 37.2302C97.4755 37.7434 96.0837 38 94.5512 38Z" fill="#f9fbf3"/>
<path d="M116.894 37.4226V14.6162H111.827V11.8737H116.894V9.41981C116.894 7.62352 117.238 6.09989 117.926 4.8489C118.645 3.59792 119.615 2.65166 120.835 2.01013C122.055 1.33652 123.399 0.999717 124.869 0.999717C125.214 0.999717 125.558 1.03179 125.902 1.09595C126.277 1.12802 126.59 1.17614 126.84 1.24029V3.83849C126.59 3.77434 126.293 3.74226 125.949 3.74226C125.604 3.71018 125.339 3.69415 125.151 3.69415C123.525 3.69415 122.211 4.17529 121.21 5.13759C120.209 6.06781 119.709 7.49522 119.709 9.41981V11.8737H133.877V14.6162H119.709V37.4226H116.894ZM132.61 37.4226V0.999717H135.425V37.4226H132.61Z" fill="#f9fbf3"/>
<path d="M143.177 37.4226V11.8737H145.992V37.4226H143.177ZM143.177 6.86972V1.57709H145.992V6.86972H143.177Z" fill="#f9fbf3"/>
<path d="M156.295 37.4226V14.6162H151.228V11.8737H156.295V9.41981C156.295 7.62352 156.639 6.09989 157.327 4.8489C158.047 3.59792 159.016 2.65166 160.236 2.01013C161.456 1.33652 162.801 0.999717 164.271 0.999717C164.615 0.999717 164.959 1.03179 165.303 1.09595C165.678 1.12802 165.991 1.17614 166.241 1.24029V3.83849C165.991 3.77434 165.694 3.74226 165.35 3.74226C165.006 3.71018 164.74 3.69415 164.552 3.69415C162.926 3.69415 161.612 4.17529 160.611 5.13759C159.61 6.06781 159.11 7.49522 159.11 9.41981V11.8737H165.303V14.6162H159.11V37.4226H156.295Z" fill="#f9fbf3"/>
<path d="M181.975 38C179.629 38 177.518 37.4226 175.642 36.2679C173.765 35.081 172.279 33.4772 171.185 31.4564C170.09 29.4035 169.543 27.11 169.543 24.576C169.543 22.0419 170.074 19.7805 171.138 17.7918C172.201 15.771 173.64 14.1832 175.454 13.0284C177.268 11.8737 179.301 11.2963 181.553 11.2963C183.273 11.2963 184.821 11.6171 186.197 12.2586C187.605 12.9001 188.809 13.7983 189.81 14.953C190.842 16.0757 191.624 17.3748 192.156 18.8503C192.719 20.2938 193 21.8174 193 23.4212C193 23.742 192.984 24.0788 192.953 24.4316C192.922 24.7845 192.875 25.1533 192.812 25.5383H171.185V22.892H191.217L189.951 23.9024C190.138 22.0419 189.872 20.3739 189.153 18.8984C188.434 17.3908 187.401 16.204 186.057 15.3379C184.743 14.4398 183.242 13.9907 181.553 13.9907C179.864 13.9907 178.316 14.4558 176.908 15.386C175.501 16.2842 174.39 17.5352 173.577 19.139C172.764 20.7107 172.389 22.5391 172.451 24.6241C172.389 26.7091 172.78 28.5535 173.624 30.1573C174.469 31.7611 175.626 33.0281 177.096 33.9584C178.566 34.8565 180.192 35.3056 181.975 35.3056C183.789 35.3056 185.369 34.8725 186.713 34.0065C188.058 33.1083 189.153 31.9215 189.997 30.446L192.39 31.7451C191.827 32.9319 191.03 34.0065 189.997 34.9688C188.965 35.899 187.761 36.6367 186.385 37.182C185.04 37.7273 183.57 38 181.975 38Z" fill="#f9fbf3"/>
</svg>
