<svg width="117" height="22" viewBox="0 0 117 22" fill="none" xmlns="http://www.w3.org/2000/svg">
<path d="M19.0851 3.97889C18.7245 4.29672 19.2119 4.83548 19.573 4.51725C20.8008 3.43522 21.6322 2.02426 21.9771 0.436863C22.0328 0.180547 21.8013 -0.0464819 21.5424 0.00821083C18.6192 0.625941 16.3177 2.86442 15.6433 5.72893L14.3921 6.96281C15.0534 4.84405 14.7566 2.50079 13.4992 0.584651C13.3551 0.365067 13.0287 0.365022 12.8845 0.584651C11.2366 3.096 11.2366 6.34147 12.8844 8.85287C12.9919 9.01676 13.2161 9.06857 13.3871 8.96203C15.653 7.54692 18.3203 7.54092 20.4566 8.65702C18.8385 9.50367 16.9453 9.69239 15.1742 9.16748C14.7105 9.02999 14.5002 9.72163 14.9635 9.85895C17.1294 10.5009 19.468 10.1785 21.3777 8.95999C21.6 8.81816 21.6009 8.49619 21.3777 8.35382C19.4347 7.11393 17.0584 6.82125 14.9098 7.47332C16.4125 5.99156 16.3019 6.13285 16.3294 6.00609C16.8621 3.55484 18.7072 1.5925 21.1088 0.864793C20.7368 2.0656 20.0447 3.13319 19.0851 3.97889ZM13.1919 1.49326C14.2735 3.5067 14.2735 5.93087 13.1919 7.94439C12.1102 5.93091 12.1102 3.50674 13.1919 1.49326ZM18.779 13.1364C16.1901 11.4844 12.9947 11.1566 10.1649 12.1524L12.1808 10.1645C12.5228 9.82723 12.0056 9.31622 11.6631 9.65394L9.64715 11.6419C10.657 8.85133 10.3246 5.70032 8.64941 3.14727C8.50526 2.92768 8.17885 2.92764 8.03465 3.14727C6.52572 5.44689 6.07827 8.2818 6.80706 10.9251C6.93396 11.3854 7.64065 11.1965 7.51357 10.7357C6.89163 8.4799 7.19558 6.07328 8.34203 4.04365C9.95663 6.90153 9.86021 10.4358 8.05355 13.2133L4.46545 16.7515C5.53773 14.0473 5.55586 11.0053 4.45539 8.25869C4.27774 7.8151 3.59649 8.07977 3.77441 8.52399C5.00773 11.6021 4.74318 15.0761 3.08305 17.932C1.04004 14.4188 1.14245 10.037 3.39047 6.6111C3.65324 6.21069 3.03889 5.81782 2.77572 6.21886C0.317877 9.96473 0.265571 14.7817 2.61802 18.5735L0.112225 21.0444C-0.229841 21.3817 0.287491 21.8926 0.629969 21.555L3.3135 18.9087C6.78308 16.7113 11.2102 16.6167 14.7619 18.6252C11.9795 20.1954 8.57967 20.5008 5.54981 19.4291C5.09458 19.268 4.8466 19.9474 5.30261 20.1086C8.64868 21.2923 12.5006 20.9471 15.6641 18.9285C15.8864 18.7866 15.8873 18.4647 15.6641 18.3223C12.4525 16.273 8.46422 15.9193 4.98434 17.2611L8.39507 13.8977C11.5957 15.8066 15.6382 15.7467 18.779 13.7426C19.0013 13.6007 19.0021 13.2787 18.779 13.1364ZM9.05207 13.4395C11.7876 11.9366 15.1347 11.9367 17.8701 13.4395C15.1347 14.9423 11.7876 14.9424 9.05207 13.4395Z" fill="#374836"/>
<path d="M29.0427 21.6657V0.578784H30.7387V21.6657H29.0427Z" fill="#374836"/>
<path d="M42.2606 22C40.8472 22 39.5752 21.6657 38.4445 20.9972C37.3139 20.3101 36.4188 19.3815 35.7592 18.2116C35.0996 17.0231 34.7698 15.6953 34.7698 14.2282C34.7698 12.7611 35.0902 11.4519 35.7309 10.3005C36.3716 9.13056 37.2385 8.21131 38.3315 7.54277C39.4245 6.87423 40.6494 6.53995 42.0062 6.53995C43.0426 6.53995 43.9754 6.72566 44.8046 7.09707C45.6526 7.46849 46.3781 7.98846 46.9812 8.65701C47.603 9.30698 48.0741 10.0591 48.3945 10.9133C48.7337 11.749 48.9033 12.6311 48.9033 13.5597C48.9033 13.7454 48.8939 13.9403 48.875 14.1446C48.8562 14.3489 48.8279 14.5625 48.7902 14.7853H35.7592V13.2532H47.8292L47.066 13.8382C47.179 12.7611 47.0188 11.7954 46.5854 10.9412C46.152 10.0684 45.5301 9.38126 44.7198 8.87985C43.9283 8.35988 43.0238 8.09989 42.0062 8.09989C40.9886 8.09989 40.0558 8.36916 39.2078 8.90771C38.3597 9.42769 37.6908 10.1519 37.2008 11.0805C36.7108 11.9904 36.4847 13.049 36.5224 14.256C36.4847 15.4631 36.7203 16.531 37.2291 17.4595C37.7379 18.388 38.4351 19.1216 39.3208 19.6601C40.2065 20.1801 41.1864 20.4401 42.2606 20.4401C43.3536 20.4401 44.3052 20.1894 45.1155 19.688C45.9259 19.168 46.5854 18.4809 47.0942 17.6266L48.5358 18.3787C48.1966 19.0658 47.7161 19.688 47.0942 20.2451C46.4724 20.7836 45.7468 21.2107 44.9177 21.5264C44.1074 21.8422 43.2217 22 42.2606 22Z" fill="#374836"/>
<path d="M56.9687 22C56.0264 22 55.1878 21.8236 54.4529 21.4707C53.718 21.1179 53.1338 20.6258 52.7004 19.9944C52.2669 19.363 52.0502 18.6387 52.0502 17.8216C52.0502 17.0974 52.2104 16.4195 52.5308 15.7881C52.8511 15.1567 53.3693 14.6182 54.0854 14.1725C54.8015 13.7082 55.7343 13.3832 56.8839 13.1975L62.9613 12.1947V13.7546L57.3361 14.6739C56.0547 14.8782 55.1502 15.2589 54.6225 15.816C54.0949 16.3731 53.831 17.0231 53.831 17.7659C53.831 18.5644 54.1325 19.2144 54.7356 19.7158C55.3574 20.2172 56.1395 20.4679 57.0817 20.4679C58.1747 20.4679 59.1264 20.2265 59.9367 19.7437C60.747 19.2423 61.3783 18.5923 61.8306 17.7938C62.2828 16.9766 62.509 16.0853 62.509 15.1196V11.4426C62.509 10.4584 62.1509 9.65982 61.4348 9.04699C60.7187 8.43416 59.7859 8.12774 58.6364 8.12774C57.6942 8.12774 56.8462 8.35988 56.0924 8.82414C55.3386 9.28841 54.7638 9.89195 54.3681 10.6348L52.8417 9.82696C53.1244 9.2327 53.5578 8.68486 54.142 8.18345C54.7262 7.68205 55.4046 7.28278 56.1772 6.98565C56.9498 6.68852 57.7696 6.53995 58.6364 6.53995C59.7294 6.53995 60.6905 6.75352 61.5196 7.18064C62.3676 7.58919 63.0272 8.16488 63.4983 8.90771C63.9694 9.63196 64.205 10.4769 64.205 11.4426V21.6657H62.509V18.5737L62.7068 18.713C62.4619 19.3073 62.0567 19.8551 61.4914 20.3565C60.926 20.8393 60.257 21.2386 59.4844 21.5543C58.7306 21.8514 57.892 22 56.9687 22Z" fill="#374836"/>
<path d="M70.4306 21.6657V8.46201H67.3777V6.87423H70.4306V5.45357C70.4306 4.41362 70.6379 3.53151 71.0524 2.80726C71.4859 2.083 72.07 1.53517 72.805 1.16376C73.5399 0.773775 74.3502 0.578784 75.2359 0.578784C75.4432 0.578784 75.6505 0.597354 75.8578 0.634495C76.0839 0.653066 76.2724 0.680922 76.4232 0.718063V2.22228C76.2724 2.18514 76.0934 2.16657 75.8861 2.16657C75.6788 2.148 75.5186 2.13872 75.4055 2.13872C74.4256 2.13872 73.6341 2.41728 73.0311 2.9744C72.4281 3.51294 72.1266 4.33934 72.1266 5.45357V6.87423H80.6632V8.46201H72.1266V21.6657H70.4306ZM79.9 21.6657V0.578784H81.596V21.6657H79.9Z" fill="#374836"/>
<path d="M86.2667 21.6657V6.87423H87.9627V21.6657H86.2667ZM86.2667 3.97721V0.913054H87.9627V3.97721H86.2667Z" fill="#374836"/>
<path d="M94.1704 21.6657V8.46201H91.1175V6.87423H94.1704V5.45357C94.1704 4.41362 94.3777 3.53151 94.7922 2.80726C95.2257 2.083 95.8099 1.53517 96.5448 1.16376C97.2797 0.773775 98.09 0.578784 98.9757 0.578784C99.183 0.578784 99.3903 0.597354 99.5976 0.634495C99.8238 0.653066 100.012 0.680922 100.163 0.718063V2.22228C100.012 2.18514 99.8332 2.16657 99.6259 2.16657C99.4186 2.148 99.2584 2.13872 99.1453 2.13872C98.1654 2.13872 97.374 2.41728 96.7709 2.9744C96.1679 3.51294 95.8664 4.33934 95.8664 5.45357V6.87423H99.5976V8.46201H95.8664V21.6657H94.1704Z" fill="#374836"/>
<path d="M109.643 22C108.23 22 106.958 21.6657 105.827 20.9972C104.696 20.3101 103.801 19.3815 103.142 18.2116C102.482 17.0231 102.152 15.6953 102.152 14.2282C102.152 12.7611 102.473 11.4519 103.113 10.3005C103.754 9.13056 104.621 8.21131 105.714 7.54277C106.807 6.87423 108.032 6.53995 109.389 6.53995C110.425 6.53995 111.358 6.72566 112.187 7.09707C113.035 7.46849 113.761 7.98846 114.364 8.65701C114.985 9.30698 115.457 10.0591 115.777 10.9133C116.116 11.749 116.286 12.6311 116.286 13.5597C116.286 13.7454 116.276 13.9403 116.257 14.1446C116.239 14.3489 116.21 14.5625 116.173 14.7853H103.142V13.2532H115.212L114.448 13.8382C114.561 12.7611 114.401 11.7954 113.968 10.9412C113.534 10.0684 112.913 9.38126 112.102 8.87985C111.311 8.35988 110.406 8.09989 109.389 8.09989C108.371 8.09989 107.438 8.36916 106.59 8.90771C105.742 9.42769 105.073 10.1519 104.583 11.0805C104.093 11.9904 103.867 13.049 103.905 14.256C103.867 15.4631 104.103 16.531 104.611 17.4595C105.12 18.388 105.818 19.1216 106.703 19.6601C107.589 20.1801 108.569 20.4401 109.643 20.4401C110.736 20.4401 111.688 20.1894 112.498 19.688C113.308 19.168 113.968 18.4809 114.477 17.6266L115.918 18.3787C115.579 19.0658 115.098 19.688 114.477 20.2451C113.855 20.7836 113.129 21.2107 112.3 21.5264C111.49 21.8422 110.604 22 109.643 22Z" fill="#374836"/>
</svg>
